<?xml version="1.0" standalone="no"?>
<!DOCTYPE svg PUBLIC "-//W3C//DTD SVG 20010904//EN"
 "http://www.w3.org/TR/2001/REC-SVG-20010904/DTD/svg10.dtd">
<svg version="1.0" xmlns="http://www.w3.org/2000/svg"
 width="58" height="52" viewBox="0 0 500.000000 500.000000"
 preserveAspectRatio="xMidYMid meet">
<metadata>
Created by potrace 1.16, written by Peter Selinger 2001-2019
</metadata>
<g transform="translate(0.000000,500.000000) scale(0.100000,-0.100000)"
fill="#000000" stroke="none">
<path d="M2285 4303 c-341 -73 -631 -320 -760 -648 -28 -71 -65 -228 -65 -277
l0 -28 375 0 375 0 0 105 0 105 285 0 285 0 -2 -282 -3 -283 -280 0 -280 0 -3
108 -3 107 -379 0 -379 0 4 -27 c35 -224 73 -330 171 -480 209 -322 603 -508
979 -463 361 43 662 254 821 575 81 163 107 273 107 455 0 160 -12 232 -62
370 -126 345 -434 601 -800 665 -106 19 -295 18 -386 -2z"/>
<path d="M2 1348 l3 -383 28 -60 c49 -104 131 -169 266 -209 76 -22 326 -22
402 0 180 54 274 157 299 330 5 38 10 212 10 387 l0 318 -112 -3 -113 -3 -5
-350 c-5 -344 -5 -351 -29 -398 -42 -84 -113 -118 -251 -118 -139 0 -212 36
-250 123 -22 51 -22 60 -21 400 l2 348 -116 0 -116 0 3 -382z"/>
<path d="M1445 1718 c-11 -6 -23 -16 -27 -22 -4 -6 -8 -228 -8 -493 l0 -483
24 -15 c21 -14 68 -16 368 -13 334 3 345 4 402 27 82 33 140 93 162 167 40
139 -19 305 -124 345 l-23 9 31 26 c55 47 75 98 75 194 0 150 -57 221 -206
254 -85 20 -641 23 -674 4z m593 -174 c46 -18 62 -47 62 -114 0 -116 -31 -130
-285 -130 l-185 0 0 130 0 130 185 0 c144 0 193 -3 223 -16z m56 -420 c42 -21
56 -50 56 -119 0 -125 -23 -135 -305 -135 l-215 0 0 104 c0 57 3 112 6 121 14
36 62 44 246 45 144 0 184 -3 212 -16z"/>
<path d="M2804 1718 c-42 -20 -44 -38 -44 -519 l0 -460 25 -25 24 -24 393 2
392 3 32 75 c18 41 33 81 33 88 1 9 -72 12 -334 12 l-335 0 0 104 c0 156 -9
150 233 156 108 3 198 7 200 10 3 3 17 34 32 70 15 36 29 71 32 78 4 9 -49 12
-246 12 l-251 0 0 125 0 125 302 2 302 3 32 75 c18 41 33 81 33 88 1 16 -822
16 -855 0z"/>
<path d="M4047 1710 l-27 -22 2 -496 3 -497 108 -3 107 -3 0 170 c0 226 -9
215 177 219 l139 3 103 -188 c57 -103 109 -191 115 -195 6 -4 59 -8 119 -8 90
0 107 2 107 16 0 8 -51 102 -114 209 l-114 194 27 6 c51 11 117 71 147 132 26
52 29 68 29 158 0 123 -18 177 -79 233 -25 23 -69 49 -107 62 -61 23 -77 24
-389 28 -320 3 -326 3 -353 -18z m650 -179 c25 -16 34 -30 44 -75 18 -81 -2
-152 -51 -180 -32 -19 -55 -21 -242 -24 l-208 -4 0 151 0 151 213 0 c192 0
215 -2 244 -19z"/>
</g>
</svg>
