<svg width="43" height="40" viewBox="0 0 43 40" fill="none" xmlns="http://www.w3.org/2000/svg">
<path d="M28.7539 20.4578L28.7799 19.4581L28.758 19.4575L28.7361 19.4579L28.7539 20.4578ZM33.7539 20.5878L33.7979 19.5888L33.7889 19.5884L33.7799 19.5881L33.7539 20.5878ZM36.2539 20.6978L36.3178 19.6998L36.3078 19.6992L36.2979 19.6988L36.2539 20.6978ZM10.7539 21.2478L10.7926 22.2471L10.8026 22.2466L10.7539 21.2478ZM37.8334 1.96927L37.4075 2.87406L37.8334 1.96927ZM38.5339 13.981L37.9704 13.1549L37.9704 13.1549L38.5339 13.981ZM38.8842 19.6336L39.8766 19.7566L39.8766 19.7566L38.8842 19.6336ZM35.3814 29.5256L34.5472 28.9742L34.5472 28.9742L35.3814 29.5256ZM12.6128 37.2979L13.3229 38.002L13.3229 38.002L12.6128 37.2979ZM9.46023 38.3578L9.10434 39.2923L9.11982 39.2982L9.13548 39.3036L9.46023 38.3578ZM7.10621 33.3553L8.04351 33.7038L7.10621 33.3553ZM2.90278 26.2895L3.88368 26.095L3.88368 26.095L2.90278 26.2895ZM1.75393 11.8613L0.776376 12.072L0.776376 12.072L1.75393 11.8613ZM10.8613 1.96927L11.6126 2.62933L11.6126 2.62933L10.8613 1.96927ZM17.2645 4.03252L17.9079 4.79805L17.9079 4.79805L17.2645 4.03252ZM27.754 16.3118L27.9249 15.3265L27.9249 15.3265L27.754 16.3118ZM21.254 14.8578L22.1484 14.4106L22.1484 14.4106L21.254 14.8578ZM4 27.8847L3.46761 28.7312L3.46761 28.7312L4 27.8847ZM11.754 30.8578L11.9965 29.8876L11.9965 29.8876L11.754 30.8578ZM16.7539 28.9737L17.5976 29.5105L17.7205 29.3173L17.7472 29.0898L16.7539 28.9737ZM5.25396 8.35779L4.38697 7.85947L4.38697 7.85947L5.25396 8.35779ZM7.75396 12.8578L7.24412 13.7181L7.27483 13.7363L7.30675 13.7522L7.75396 12.8578ZM18.254 20.3578H17.254V20.772L17.5469 21.0649L18.254 20.3578ZM24.254 20.5378L24.214 19.5386L24.2049 19.539L24.1959 19.5395L24.254 20.5378ZM26.754 26.8581L27.354 27.6581L27.354 27.6581L26.754 26.8581ZM23.754 29.858L24.7026 30.1743L24.7026 30.1742L23.754 29.858ZM23.254 32.358L22.3596 32.8052L22.3596 32.8052L23.254 32.358ZM23.754 33.858L22.8595 33.4108L22.8595 33.4108L23.754 33.858ZM17.5539 24.3578L18.5285 24.5816L18.5288 24.5806L17.5539 24.3578ZM16.7539 32.8578L15.7595 32.9636L15.7622 32.9891L15.7662 33.0143L16.7539 32.8578ZM17.9539 22.6078L17.0444 22.192L17.0019 22.2851L16.979 22.385L17.9539 22.6078ZM17.0239 26.6657L16.0493 26.4419L16.037 26.4952L16.0307 26.5495L17.0239 26.6657ZM17.2539 36.0125L17.3396 37.0088L17.2539 36.0125ZM28.7279 21.4574L33.7279 21.5874L33.7799 19.5881L28.7799 19.4581L28.7279 21.4574ZM33.7099 21.5868L36.2099 21.6968L36.2979 19.6988L33.7979 19.5888L33.7099 21.5868ZM36.19 21.6957L38.69 21.8557L38.8178 19.8598L36.3178 19.6998L36.19 21.6957ZM10.7153 20.2485L3.21529 20.5385L3.29256 22.537L10.7926 22.247L10.7153 20.2485ZM27.6305 6.27553C28.8027 5.48736 30.2817 4.23438 32.1077 3.33218C33.8954 2.44895 35.7095 2.07489 37.4075 2.87406L38.2592 1.06448C35.7538 -0.114752 33.2383 0.542811 31.2218 1.5391C29.2437 2.51642 27.444 3.99083 26.5145 4.61581L27.6305 6.27553ZM37.4075 2.87406C39.7342 3.96914 40.8841 5.83035 40.9916 7.70715C41.0995 9.59186 40.1643 11.6582 37.9704 13.1549L39.0975 14.8071C41.7994 12.9638 43.1411 10.2607 42.9883 7.59282C42.8351 4.91702 41.1868 2.4424 38.2592 1.06448L37.4075 2.87406ZM37.9704 13.1549C37.2532 13.6442 36.8633 14.3524 36.7174 15.0299C36.5778 15.6781 36.6405 16.4047 36.974 16.9653L38.6928 15.9427C38.6929 15.943 38.6858 15.9308 38.677 15.903C38.6683 15.8756 38.6596 15.8381 38.6539 15.7908C38.6423 15.6948 38.6455 15.5767 38.6726 15.4511C38.7262 15.2018 38.8619 14.9679 39.0975 14.8071L37.9704 13.1549ZM37.859 17.4537C38.2029 17.4449 38.2083 17.5387 38.1629 17.4836C38.1539 17.4727 38.211 17.5401 38.2097 17.8082C38.2084 18.0602 38.1564 18.3581 38.0847 18.6663C38.049 18.8192 38.014 18.9528 37.9794 19.0902C37.9515 19.201 37.9096 19.3675 37.8918 19.5106L39.8766 19.7566C39.8762 19.76 39.8831 19.7207 39.9189 19.5783C39.9481 19.4626 39.9915 19.2959 40.0325 19.1201C40.1139 18.7708 40.2073 18.2982 40.2096 17.818C40.2119 17.354 40.1308 16.7278 39.7077 16.2133C39.2483 15.6545 38.5636 15.4349 37.8077 15.4543L37.859 17.4537ZM37.8918 19.5106C37.5492 22.2749 37.2251 24.9228 34.5472 28.9742L36.2156 30.077C39.1422 25.6496 39.5187 22.6449 39.8766 19.7566L37.8918 19.5106ZM34.5472 28.9742C33.1924 31.0237 31.8228 32.4892 30.2905 33.447C28.7728 34.3958 27.0346 34.8848 24.8728 34.8848V36.8848C27.3627 36.8848 29.4776 36.3139 31.3507 35.1429C33.2092 33.9811 34.768 32.267 36.2156 30.077L34.5472 28.9742ZM11.9027 36.5938C11.3992 37.1016 11.1893 37.6144 11.1029 38.0605C11.0643 38.2601 11.0522 38.4439 11.0451 38.5259C11.033 38.6658 11.0284 38.5696 11.0849 38.4473C11.1257 38.3589 11.1992 38.2476 11.3211 38.1539C11.4404 38.0621 11.5574 38.0246 11.6322 38.0099C11.7451 37.9878 11.7787 38.0148 11.6197 37.9829C11.3264 37.9239 10.7901 37.7571 9.78498 37.412L9.13548 39.3036C10.1059 39.6368 10.7763 39.8533 11.2256 39.9436C11.438 39.9863 11.7267 40.0295 12.0171 39.9725C12.1805 39.9405 12.3667 39.8728 12.5404 39.7392C12.7168 39.6036 12.83 39.4387 12.9006 39.2858C13.0167 39.0345 13.0318 38.7661 13.0377 38.6981C13.0485 38.5722 13.0526 38.5124 13.0665 38.4404C13.0853 38.3434 13.1258 38.2008 13.3229 38.002L11.9027 36.5938ZM9.81612 37.4233C9.30773 37.2297 8.89093 37.0649 8.5431 36.8742C8.20144 36.6869 7.98866 36.5067 7.85701 36.3197C7.63916 36.0101 7.42887 35.3569 8.04351 33.7038L6.1689 33.0068C5.46998 34.8865 5.43483 36.353 6.22145 37.4707C6.59203 37.9973 7.08882 38.3577 7.58163 38.6279C8.06827 38.8947 8.61086 39.1044 9.10434 39.2923L9.81612 37.4233ZM3.88368 26.095C3.55982 24.4618 3.70218 23.0594 3.72239 20.8067C3.74222 18.596 3.62525 15.7972 2.73148 11.6506L0.776376 12.072C1.63403 16.051 1.74121 18.6999 1.72247 20.7887C1.70411 22.8355 1.54518 24.5844 1.92188 26.4841L3.88368 26.095ZM2.73148 11.6506C1.8598 7.60651 1.85387 5.27184 2.26157 3.99592C2.45353 3.39519 2.71973 3.08481 2.98646 2.90876C3.26563 2.72451 3.65429 2.61598 4.20593 2.61598V0.615979C3.4054 0.615979 2.59256 0.772411 1.88479 1.23954C1.16458 1.71487 0.658405 2.44226 0.356471 3.38716C-0.2236 5.2025 -0.103373 7.99049 0.776376 12.072L2.73148 11.6506ZM4.20593 2.61598C4.67006 2.61598 5.06503 2.75726 5.47246 2.98732C5.68209 3.10569 5.88632 3.24242 6.11092 3.39707C6.32381 3.54365 6.57327 3.71946 6.82178 3.87129C7.32345 4.1778 7.9901 4.49665 8.8104 4.41482C9.62489 4.33357 10.3813 3.88023 11.1385 3.13352L9.73421 1.70946C9.14037 2.29505 8.78754 2.40717 8.61188 2.42469C8.44202 2.44164 8.23758 2.39257 7.86451 2.16463C7.67564 2.04923 7.4868 1.91618 7.24514 1.74978C7.01519 1.59145 6.74861 1.41109 6.45583 1.24578C5.85844 0.908456 5.12218 0.615979 4.20593 0.615979V2.61598ZM11.1385 3.13352C11.2939 2.98023 11.4518 2.81232 11.6126 2.62933L10.1101 1.30921C9.97703 1.46069 9.85187 1.59343 9.73421 1.70946L11.1385 3.13352ZM11.6126 2.62933C12.3248 1.81869 13.652 1.8161 15.0143 2.47344C15.6566 2.78332 16.1374 3.17159 16.3696 3.47111C16.4898 3.6262 16.483 3.67935 16.477 3.62825C16.4635 3.51402 16.5164 3.35494 16.6211 3.26698L17.9079 4.79805C18.3469 4.42907 18.5242 3.91087 18.4632 3.39381C18.4096 2.93989 18.1834 2.54652 17.9503 2.24578C17.4758 1.63366 16.7144 1.0731 15.8835 0.672162C14.2995 -0.0921353 11.7563 -0.564297 10.1101 1.30921L11.6126 2.62933ZM16.6211 3.26698C16.3145 3.52463 15.7303 4.14449 16.0505 4.96422C16.1838 5.30562 16.4313 5.52164 16.6226 5.64972C16.8199 5.78188 17.0388 5.87523 17.2419 5.9447C18.0182 6.21022 19.2093 6.33415 20.4059 6.39998C22.8502 6.53445 25.8959 6.44567 27.0725 6.44567V4.44567C25.7971 4.44567 22.8879 4.5335 20.5158 4.403C19.3042 4.33634 18.3717 4.21737 17.8891 4.05233C17.8368 4.03442 17.798 4.01859 17.7706 4.0059C17.7426 3.99296 17.7328 3.98616 17.7355 3.98799C17.7377 3.98943 17.7623 4.00596 17.7954 4.04243C17.8295 4.07997 17.8772 4.14387 17.9134 4.23655C18.1091 4.7375 17.689 4.982 17.9079 4.79805L16.6211 3.26698ZM37.6184 15.4774C36.3153 15.7643 32.2124 16.0702 27.9249 15.3265L27.5831 17.2971C32.0956 18.0798 36.4626 17.7798 38.0484 17.4306L37.6184 15.4774ZM27.9249 15.3265C24.7571 14.7771 22.0814 16.1591 20.2778 17.6746L21.5644 19.2058C23.1192 17.8994 25.2145 16.8863 27.5831 17.2971L27.9249 15.3265ZM20.2778 17.6746C19.2098 18.5719 18.3978 19.5549 17.9103 20.3209L19.5976 21.3947C19.9755 20.8008 20.6524 19.9721 21.5644 19.2058L20.2778 17.6746ZM26.3928 4.71221C25.1965 5.82082 23.3887 7.62359 22.0238 9.47829C21.3437 10.4023 20.739 11.3852 20.3875 12.3348C20.0436 13.264 19.8777 14.3413 20.3595 15.305L22.1484 14.4106C22.0303 14.1743 21.997 13.7482 22.2632 13.029C22.5218 12.3301 23.0047 11.5197 23.6346 10.6638C24.8895 8.95858 26.591 7.2553 27.7522 6.17914L26.3928 4.71221ZM20.3595 15.305C20.7576 16.1011 20.6018 16.9969 20.0559 17.9387L21.7862 18.9417C22.5014 17.708 22.9717 16.0573 22.1484 14.4106L20.3595 15.305ZM20.0559 17.9387C19.5303 18.8454 18.7288 19.6266 18.154 20.0578L19.354 21.6578C20.0886 21.1068 21.095 20.1342 21.7862 18.9417L20.0559 17.9387ZM8.04351 33.7038C8.58712 32.2418 8.7819 31.074 8.58719 30.125C8.3748 29.0897 7.73861 28.4823 7.05227 28.1L6.07908 29.8473C6.40867 30.0309 6.56365 30.2133 6.628 30.5269C6.71002 30.9267 6.6671 31.6669 6.1689 33.0068L8.04351 33.7038ZM7.05227 28.1C6.64496 27.8732 6.2001 27.7137 5.82946 27.5834L5.16612 29.4702C5.54862 29.6046 5.8405 29.7144 6.07908 29.8473L7.05227 28.1ZM5.82945 27.5834C5.27599 27.3888 4.86736 27.2489 4.53239 27.0382L3.46761 28.7312C4.03445 29.0877 4.68809 29.3021 5.16612 29.4702L5.82945 27.5834ZM4.53239 27.0382C4.20411 26.8317 3.97928 26.5771 3.88368 26.095L1.92188 26.4841C2.14023 27.5852 2.74713 28.2781 3.46761 28.7312L4.53239 27.0382ZM3.60043 28.8014C4.01653 28.9828 4.53445 29.2053 5.10858 29.4479L5.88699 27.6056C5.31929 27.3658 4.8083 27.1462 4.39957 26.968L3.60043 28.8014ZM5.10858 29.4479C5.44978 29.5921 5.81108 29.7434 6.18289 29.8975L6.94846 28.0498C6.58124 27.8977 6.22423 27.7481 5.887 27.6056L5.10858 29.4479ZM6.18289 29.8975C8.20559 30.7356 10.3573 31.5394 11.5114 31.8279L11.9965 29.8876C11.0025 29.6392 8.97484 28.8894 6.94846 28.0498L6.18289 29.8975ZM11.5114 31.8279C13.4168 32.3043 16.1433 31.7959 17.5976 29.5105L15.9103 28.4368C15.0313 29.8181 13.2912 30.2113 11.9965 29.8876L11.5114 31.8279ZM10.1365 1.28035C10.0056 1.41804 9.86054 1.57232 9.70425 1.7403L11.1685 3.10268C11.3204 2.93941 11.4606 2.79031 11.5862 2.6582L10.1365 1.28035ZM9.70425 1.7403C9.02301 2.47246 7.87602 3.64133 6.907 4.69615C5.91992 5.77062 4.91872 6.93432 4.38697 7.85947L6.12095 8.85611C6.52655 8.15044 7.37889 7.13877 8.37985 6.04919C9.39886 4.93995 10.3744 3.95609 11.1685 3.10268L9.70425 1.7403ZM4.38697 7.85947C3.57589 9.2706 4.14492 10.6605 4.83752 11.5968C5.53781 12.5436 6.539 13.3002 7.24412 13.7181L8.2638 11.9975C7.70423 11.6659 6.93779 11.0731 6.44544 10.4075C5.94539 9.73147 5.89677 9.24614 6.12095 8.85611L4.38697 7.85947ZM7.30675 13.7522C7.62163 13.9097 7.98399 14.0313 8.23638 14.1243C8.51773 14.2279 8.75925 14.3272 8.98946 14.4653C9.40937 14.7172 9.89864 15.1621 10.3255 16.2292L12.1824 15.4864C11.6093 14.0535 10.8485 13.2484 10.0185 12.7503C9.62367 12.5134 9.24019 12.3627 8.92779 12.2476C8.58643 12.1218 8.38629 12.0559 8.20117 11.9634L7.30675 13.7522ZM10.3255 16.2292C10.8774 17.609 11.5184 18.3752 12.4103 18.7716C12.8079 18.9483 13.2091 19.028 13.5234 19.0893C13.8597 19.1549 14.1359 19.2059 14.4377 19.3065L15.0702 17.4091C14.622 17.2597 14.2107 17.1857 13.9064 17.1263C13.5801 17.0626 13.3875 17.0173 13.2226 16.944C12.9895 16.8404 12.6305 16.6066 12.1824 15.4864L10.3255 16.2292ZM14.4377 19.3065C14.8647 19.4488 15.3195 19.5531 15.7046 19.6437C16.1125 19.7397 16.4455 19.821 16.7247 19.9226C17.0077 20.0255 17.1404 20.117 17.1982 20.1769C17.2252 20.2049 17.254 20.2355 17.254 20.3578H19.254C19.254 19.73 19.0328 19.1982 18.6379 18.7887C18.2738 18.4111 17.8127 18.1901 17.4082 18.043C16.9999 17.8945 16.5517 17.7884 16.1627 17.6969C15.7509 17.6 15.3932 17.5168 15.0702 17.4091L14.4377 19.3065ZM24.2939 21.537C25.3577 21.4945 26.3868 21.565 27.2271 21.7508C28.104 21.9448 28.6153 22.2291 28.8334 22.4826C28.9239 22.5878 28.9576 22.6788 28.9647 22.7751C28.9727 22.8826 28.9519 23.0738 28.8024 23.3718C28.4898 23.9948 27.7139 24.8882 26.154 26.0581L27.354 27.6581C28.9942 26.4279 30.0682 25.3088 30.59 24.2686C30.8577 23.735 31.0002 23.182 30.9593 22.6279C30.9176 22.0624 30.6903 21.5744 30.3496 21.1783C29.7051 20.4292 28.6727 20.0222 27.659 19.798C26.6086 19.5657 25.4003 19.4912 24.214 19.5386L24.2939 21.537ZM26.154 26.0581C25.8403 26.2934 25.5391 26.4973 25.2239 26.7155C24.9181 26.9272 24.5977 27.1533 24.2983 27.4048C23.6765 27.9271 23.1284 28.5725 22.8053 29.5418L24.7026 30.1742C24.8796 29.6435 25.1648 29.2889 25.5847 28.9363C25.8061 28.7502 26.0587 28.5701 26.3623 28.3599C26.6565 28.1563 27.0012 27.9227 27.354 27.6581L26.154 26.0581ZM22.8053 29.5417C22.8055 29.541 22.7972 29.5645 22.7659 29.6283C22.7354 29.6907 22.6992 29.7595 22.6486 29.8564C22.5549 30.036 22.4258 30.2853 22.3195 30.5645C22.1063 31.1241 21.9304 31.9469 22.3596 32.8052L24.1484 31.9108C24.0775 31.7691 24.0683 31.5919 24.1884 31.2765C24.2488 31.1182 24.328 30.9613 24.4218 30.7815C24.4955 30.6402 24.6291 30.3948 24.7026 30.1743L22.8053 29.5417ZM22.3596 32.8052C22.3932 32.8725 22.4318 32.9401 22.4624 32.9926C22.4885 33.0376 22.536 33.1178 22.5617 33.1617C22.6289 33.2768 22.6883 33.3831 22.7352 33.4829C22.7846 33.5881 22.8007 33.6462 22.8039 33.6638C22.808 33.6866 22.7796 33.5706 22.8595 33.4108L24.6484 34.3052C24.836 33.9301 24.8174 33.5562 24.7712 33.3038C24.7241 33.0462 24.6296 32.8119 24.5456 32.633C24.4592 32.4489 24.3625 32.2794 24.2885 32.1527C24.1989 31.9994 24.1662 31.9463 24.1484 31.9108L22.3596 32.8052ZM22.8595 33.4108C22.7055 33.7188 22.4526 34.1771 22.2021 34.5454C22.0744 34.7331 21.9697 34.8641 21.8977 34.9372C21.8613 34.9742 21.8577 34.9711 21.8863 34.9531C21.9038 34.9421 22.0371 34.8576 22.2539 34.8576V36.8576C22.5707 36.8576 22.8155 36.7315 22.9527 36.645C23.1012 36.5515 23.2257 36.4391 23.3226 36.3406C23.5173 36.143 23.7001 35.8991 23.8558 35.6702C24.1719 35.2054 24.4691 34.6638 24.6484 34.3052L22.8595 33.4108ZM24.1959 19.5395L18.6959 19.8595L18.812 21.8561L24.312 21.5361L24.1959 19.5395ZM17.5469 21.0649L18.0469 21.5649L19.4611 20.1507L18.9611 19.6507L17.5469 21.0649ZM15.7539 28.8578C15.7539 29.6921 15.5849 31.3234 15.7595 32.9636L17.7483 32.7519C17.5861 31.2284 17.7539 30.0234 17.7539 28.8578L15.7539 28.8578ZM18.5288 24.5806L18.9288 22.8306L16.979 22.385L16.579 24.135L18.5288 24.5806ZM18.8634 23.0236L19.6634 21.2736L17.8445 20.442L17.0444 22.192L18.8634 23.0236ZM17.7472 29.0898L18.0171 26.7819L16.0307 26.5495L15.7607 28.8575L17.7472 29.0898ZM17.9985 26.8895L18.5285 24.5816L16.5793 24.134L16.0493 26.4419L17.9985 26.8895ZM28.7361 19.4579L24.2362 19.538L24.2717 21.5377L28.7717 21.4576L28.7361 19.4579ZM10.8026 22.2466L18.8027 21.8566L18.7053 19.859L10.7052 20.249L10.8026 22.2466ZM24.8728 34.8848C23.5025 34.8848 20.099 34.7642 17.1682 35.0161L17.3396 37.0088C20.1564 36.7666 23.3921 36.8848 24.8728 36.8848V34.8848ZM17.1682 35.0161C16.1076 35.1073 15.0699 35.2498 14.185 35.4757C13.3387 35.6916 12.4697 36.022 11.9027 36.5938L13.3229 38.002C13.4891 37.8344 13.9059 37.611 14.6795 37.4136C15.4144 37.226 16.3307 37.0955 17.3396 37.0088L17.1682 35.0161ZM15.7662 33.0143L16.2662 36.169L18.2416 35.8559L17.7416 32.7013L15.7662 33.0143Z" fill="white"/>
</svg>
