<svg width="177" height="16" viewBox="0 0 177 16" fill="none" xmlns="http://www.w3.org/2000/svg">
<path d="M8.35925 13H6.32725L1.84725 3.64C1.91125 4.376 1.95925 5.05867 1.99125 5.688C2.03392 6.30667 2.05525 7.05867 2.05525 7.944V13H0.63125V1.976H2.61525L7.14325 11.352C7.11125 11.0747 7.06858 10.5893 7.01525 9.896C6.96192 9.20267 6.93525 8.568 6.93525 7.992V1.976H8.35925V13ZM14.6411 4.376C15.8251 4.376 16.7425 4.77067 17.3931 5.56C18.0545 6.34933 18.3851 7.42133 18.3851 8.776C18.3851 9.65067 18.2358 10.424 17.9371 11.096C17.6385 11.7573 17.2065 12.2747 16.6411 12.648C16.0758 13.0107 15.4038 13.192 14.6251 13.192C13.4411 13.192 12.5185 12.7973 11.8571 12.008C11.1958 11.2187 10.8651 10.1467 10.8651 8.792C10.8651 7.91733 11.0145 7.14933 11.3131 6.488C11.6118 5.816 12.0438 5.29867 12.6091 4.936C13.1745 4.56267 13.8518 4.376 14.6411 4.376ZM14.6411 5.56C13.1798 5.56 12.4491 6.63733 12.4491 8.792C12.4491 10.936 13.1745 12.008 14.6251 12.008C16.0758 12.008 16.8011 10.9307 16.8011 8.776C16.8011 6.632 16.0811 5.56 14.6411 5.56ZM24.4809 4.376C24.7795 4.376 25.0569 4.408 25.3129 4.472L25.0409 5.912C24.7849 5.848 24.5395 5.816 24.3049 5.816C23.7822 5.816 23.3609 6.008 23.0409 6.392C22.7209 6.776 22.4702 7.37333 22.2889 8.184V13H20.8169V4.568H22.0809L22.2249 6.28C22.4489 5.65067 22.7529 5.176 23.1369 4.856C23.5209 4.536 23.9689 4.376 24.4809 4.376ZM31.2448 12.616C30.6901 13 30.0608 13.192 29.3568 13.192C28.6421 13.192 28.0821 12.9893 27.6768 12.584C27.2821 12.168 27.0848 11.5707 27.0848 10.792V5.704H25.6128V4.568H27.0848V2.664L28.5568 2.488V4.568H30.5568L30.3968 5.704H28.5568V10.728C28.5568 11.1653 28.6314 11.4853 28.7808 11.688C28.9408 11.88 29.2021 11.976 29.5648 11.976C29.8954 11.976 30.2688 11.864 30.6848 11.64L31.2448 12.616ZM36.738 4.376C37.506 4.376 38.1033 4.60533 38.53 5.064C38.9673 5.52267 39.186 6.152 39.186 6.952V13H37.714V7.16C37.714 6.56267 37.5967 6.14133 37.362 5.896C37.138 5.65067 36.8073 5.528 36.37 5.528C35.9327 5.528 35.5433 5.656 35.202 5.912C34.8607 6.168 34.5407 6.53067 34.242 7V13H32.77V1.192L34.242 1.032V5.736C34.9033 4.82933 35.7353 4.376 36.738 4.376ZM49.1794 1.784C49.9154 1.784 50.5447 1.89067 51.0674 2.104C51.59 2.30667 52.0967 2.62667 52.5874 3.064L51.7554 3.992C51.3394 3.66133 50.9287 3.42133 50.5234 3.272C50.1287 3.112 49.702 3.032 49.2434 3.032C48.6674 3.032 48.1927 3.16533 47.8194 3.432C47.446 3.69867 47.2594 4.088 47.2594 4.6C47.2594 4.92 47.3234 5.192 47.4514 5.416C47.5794 5.62933 47.814 5.82667 48.1554 6.008C48.5074 6.18933 49.014 6.38133 49.6754 6.584C50.3687 6.79733 50.9447 7.02667 51.4034 7.272C51.862 7.51733 52.23 7.85867 52.5074 8.296C52.7954 8.72267 52.9394 9.26667 52.9394 9.928C52.9394 10.568 52.7794 11.1333 52.4594 11.624C52.15 12.1147 51.6967 12.4987 51.0994 12.776C50.5127 13.0533 49.814 13.192 49.0034 13.192C47.478 13.192 46.23 12.7173 45.2594 11.768L46.0914 10.84C46.5394 11.2027 46.9927 11.48 47.4514 11.672C47.91 11.8533 48.422 11.944 48.9874 11.944C49.67 11.944 50.2354 11.7787 50.6834 11.448C51.1314 11.1067 51.3554 10.616 51.3554 9.976C51.3554 9.61333 51.286 9.31467 51.1474 9.08C51.0087 8.83467 50.7687 8.616 50.4274 8.424C50.0967 8.232 49.6114 8.04 48.9714 7.848C47.8407 7.50667 47.014 7.096 46.4914 6.616C45.9687 6.136 45.7074 5.48533 45.7074 4.664C45.7074 4.10933 45.8514 3.61333 46.1394 3.176C46.438 2.73867 46.8487 2.39733 47.3714 2.152C47.9047 1.90667 48.5074 1.784 49.1794 1.784ZM59.0661 4.376C59.8341 4.376 60.4315 4.60533 60.8581 5.064C61.2955 5.52267 61.5141 6.152 61.5141 6.952V13H60.0421V7.16C60.0421 6.56267 59.9248 6.14133 59.6901 5.896C59.4661 5.65067 59.1355 5.528 58.6981 5.528C58.2608 5.528 57.8715 5.656 57.5301 5.912C57.1888 6.168 56.8688 6.53067 56.5701 7V13H55.0981V1.192L56.5701 1.032V5.736C57.2315 4.82933 58.0635 4.376 59.0661 4.376ZM67.6411 4.376C68.8251 4.376 69.7425 4.77067 70.3931 5.56C71.0545 6.34933 71.3851 7.42133 71.3851 8.776C71.3851 9.65067 71.2358 10.424 70.9371 11.096C70.6385 11.7573 70.2065 12.2747 69.6411 12.648C69.0758 13.0107 68.4038 13.192 67.6251 13.192C66.4411 13.192 65.5185 12.7973 64.8571 12.008C64.1958 11.2187 63.8651 10.1467 63.8651 8.792C63.8651 7.91733 64.0145 7.14933 64.3131 6.488C64.6118 5.816 65.0438 5.29867 65.6091 4.936C66.1745 4.56267 66.8518 4.376 67.6411 4.376ZM67.6411 5.56C66.1798 5.56 65.4491 6.63733 65.4491 8.792C65.4491 10.936 66.1745 12.008 67.6251 12.008C69.0758 12.008 69.8011 10.9307 69.8011 8.776C69.8011 6.632 69.0811 5.56 67.6411 5.56ZM77.4809 4.376C77.7795 4.376 78.0569 4.408 78.3129 4.472L78.0409 5.912C77.7849 5.848 77.5395 5.816 77.3049 5.816C76.7822 5.816 76.3609 6.008 76.0409 6.392C75.7209 6.776 75.4702 7.37333 75.2889 8.184V13H73.8169V4.568H75.0809L75.2249 6.28C75.4489 5.65067 75.7529 5.176 76.1369 4.856C76.5209 4.536 76.9689 4.376 77.4809 4.376ZM85.8724 8.536C85.8724 8.78133 85.8617 9.032 85.8404 9.288H80.4644C80.5284 10.216 80.763 10.8987 81.1684 11.336C81.5737 11.7733 82.0964 11.992 82.7364 11.992C83.1417 11.992 83.515 11.9333 83.8564 11.816C84.1977 11.6987 84.555 11.512 84.9284 11.256L85.5684 12.136C84.6724 12.84 83.691 13.192 82.6244 13.192C81.451 13.192 80.5337 12.808 79.8724 12.04C79.2217 11.272 78.8964 10.216 78.8964 8.872C78.8964 7.99733 79.035 7.224 79.3124 6.552C79.6004 5.86933 80.0057 5.336 80.5284 4.952C81.0617 4.568 81.6857 4.376 82.4004 4.376C83.5204 4.376 84.379 4.744 84.9764 5.48C85.5737 6.216 85.8724 7.23467 85.8724 8.536ZM84.4164 8.104C84.4164 7.272 84.251 6.63733 83.9204 6.2C83.5897 5.76267 83.0937 5.544 82.4324 5.544C81.227 5.544 80.571 6.42933 80.4644 8.2H84.4164V8.104ZM94.4095 0.183999V14.568H94.0575V0.183999H94.4095ZM113.237 13H111.765L111.381 8.024C111.221 6.072 111.131 4.57333 111.109 3.528L108.725 11.752H107.301L104.789 3.512C104.789 4.84533 104.72 6.38667 104.581 8.136L104.213 13H102.773L103.685 1.976H105.733L108.053 9.992L110.261 1.976H112.325L113.237 13ZM121.434 11.032C121.434 11.3733 121.493 11.6293 121.61 11.8C121.728 11.96 121.904 12.0827 122.138 12.168L121.802 13.192C121.365 13.1387 121.013 13.016 120.746 12.824C120.48 12.632 120.282 12.3333 120.154 11.928C119.589 12.7707 118.752 13.192 117.642 13.192C116.81 13.192 116.154 12.9573 115.674 12.488C115.194 12.0187 114.954 11.4053 114.954 10.648C114.954 9.752 115.274 9.064 115.914 8.584C116.565 8.104 117.482 7.864 118.666 7.864H119.962V7.24C119.962 6.64267 119.818 6.216 119.53 5.96C119.242 5.704 118.8 5.576 118.202 5.576C117.584 5.576 116.826 5.72533 115.93 6.024L115.562 4.952C116.608 4.568 117.578 4.376 118.474 4.376C119.466 4.376 120.208 4.62133 120.698 5.112C121.189 5.592 121.434 6.28 121.434 7.176V11.032ZM117.978 12.088C118.821 12.088 119.482 11.6507 119.962 10.776V8.84H118.858C117.301 8.84 116.522 9.416 116.522 10.568C116.522 11.0693 116.645 11.448 116.89 11.704C117.136 11.96 117.498 12.088 117.978 12.088ZM125.981 13.192C125.437 13.192 125.005 13.032 124.685 12.712C124.376 12.3813 124.221 11.9227 124.221 11.336V1.176L125.693 0.999999V11.304C125.693 11.5387 125.731 11.7093 125.805 11.816C125.891 11.9227 126.029 11.976 126.221 11.976C126.424 11.976 126.605 11.944 126.765 11.88L127.149 12.904C126.797 13.096 126.408 13.192 125.981 13.192ZM130.461 4.568V13H128.989V4.568H130.461ZM129.709 0.52C130.018 0.52 130.269 0.616 130.461 0.808C130.653 1 130.749 1.24 130.749 1.528C130.749 1.816 130.653 2.056 130.461 2.248C130.269 2.42933 130.018 2.52 129.709 2.52C129.41 2.52 129.165 2.42933 128.973 2.248C128.781 2.056 128.685 1.816 128.685 1.528C128.685 1.24 128.781 1 128.973 0.808C129.165 0.616 129.41 0.52 129.709 0.52ZM137.36 4.376C138.32 4.376 139.083 4.76533 139.648 5.544C140.214 6.312 140.496 7.38933 140.496 8.776C140.496 9.65067 140.363 10.424 140.096 11.096C139.83 11.7573 139.446 12.2747 138.944 12.648C138.443 13.0107 137.856 13.192 137.184 13.192C136.299 13.192 135.552 12.8187 134.944 12.072L134.8 13H133.504V1.176L134.976 0.999999V5.624C135.584 4.792 136.379 4.376 137.36 4.376ZM136.832 12.024C137.483 12.024 137.99 11.7627 138.352 11.24C138.726 10.7067 138.912 9.88533 138.912 8.776C138.912 7.63467 138.742 6.81333 138.4 6.312C138.059 5.8 137.574 5.544 136.944 5.544C136.198 5.544 135.542 5.98133 134.976 6.856V10.888C135.2 11.24 135.472 11.5173 135.792 11.72C136.123 11.9227 136.47 12.024 136.832 12.024ZM149.276 13H148.012L147.9 11.688C147.58 12.2107 147.212 12.5947 146.796 12.84C146.38 13.0747 145.874 13.192 145.276 13.192C144.54 13.192 143.964 12.968 143.548 12.52C143.132 12.072 142.924 11.4373 142.924 10.616V4.568H144.396V10.456C144.396 11.032 144.498 11.4427 144.7 11.688C144.903 11.9227 145.234 12.04 145.692 12.04C146.514 12.04 147.218 11.5547 147.804 10.584V4.568H149.276V13ZM152.701 10.968C153.021 10.968 153.288 11.0747 153.501 11.288C153.714 11.5013 153.821 11.7627 153.821 12.072C153.821 12.4027 153.725 12.7813 153.533 13.208L152.461 15.656H151.405L152.045 13C151.906 12.8933 151.794 12.76 151.709 12.6C151.634 12.44 151.597 12.264 151.597 12.072C151.597 11.7627 151.704 11.5013 151.917 11.288C152.13 11.0747 152.392 10.968 152.701 10.968ZM164.331 1.784C164.992 1.784 165.547 1.86933 165.995 2.04C166.454 2.21067 166.918 2.488 167.387 2.872L166.555 3.848C165.883 3.304 165.174 3.032 164.427 3.032C163.51 3.032 162.768 3.384 162.203 4.088C161.648 4.792 161.371 5.92267 161.371 7.48C161.371 8.99467 161.648 10.1147 162.203 10.84C162.758 11.5547 163.494 11.912 164.411 11.912C164.88 11.912 165.291 11.832 165.643 11.672C165.995 11.512 166.368 11.288 166.763 11L167.515 11.96C167.174 12.312 166.736 12.6053 166.203 12.84C165.67 13.0747 165.056 13.192 164.363 13.192C163.467 13.192 162.667 12.9733 161.963 12.536C161.27 12.088 160.726 11.4373 160.331 10.584C159.947 9.72 159.755 8.68533 159.755 7.48C159.755 6.27467 159.958 5.24533 160.363 4.392C160.768 3.528 161.318 2.87733 162.011 2.44C162.704 2.00267 163.478 1.784 164.331 1.784ZM175.3 13L174.468 10.232H170.292L169.46 13H167.924L171.46 1.976H173.38L176.9 13H175.3ZM170.66 9H174.1L172.388 3.24L170.66 9Z" fill="white"/>
</svg>
