<svg width="1002" height="496" viewBox="0 0 1002 496" fill="none" xmlns="http://www.w3.org/2000/svg">
<g opacity="0.29827">
<path d="M1008.08 163.448L443.182 -356.858V-747.19L28.1096 -770C24.9043 -762.456 4.36709 -740.714 7.57176 -728.596C11.43 -714.102 30.8387 -718.735 36.4776 -709.409C43.0661 -698.42 31.7291 -653.749 28.3457 -640.86C21.8759 -616.445 7.09676 -596.665 2.82235 -572.25C-4.35982 -531.263 10.1824 -534.53 37.7242 -508.927C84.141 -465.742 46.9244 -420.952 58.6176 -370.223C68.1146 -328.878 109.605 -307.554 124.8 -266.211C136.553 -234.37 152.697 -226.233 177.746 -202.947C177.153 -217.084 164.51 -258.785 188.253 -255.102C211.817 -251.478 202.736 -216.669 207.247 -202.115C211.045 -189.997 237.933 -165.761 215.616 -154.593C208.196 -150.91 187.066 -165.582 178.577 -169.503C184.572 -150.791 180.774 -131.367 190.271 -113.487C201.608 -92.162 213.835 -100.359 228.853 -88.7754C244.344 -76.8355 242.683 -63.1137 235.797 -45.0554C228.615 -26.2247 221.196 -29.1352 232.592 -6.44342C240.843 9.95119 254.85 30.7421 266.9 43.2164C273.904 50.4634 281.502 52.1267 288.506 61.3932C294.323 69.1155 292.067 79.2142 299.012 86.1638C310.883 98.1037 331.006 98.282 340.384 113.904C350.831 131.309 338.96 144.437 369.706 142.833C371.309 177.643 377.897 209.185 377.541 243.994C394.695 250.825 422.414 242.687 440.399 239.063C458.266 263.18 481.355 246.429 501.774 259.558C510.678 265.26 508.837 279.517 514.239 284.506C525.339 294.723 533.529 288.308 547.301 291.872C557.51 294.486 565.404 301.97 575.138 304.703C584.338 307.257 599.475 301.258 606.301 309.396C614.492 319.138 600.78 336.958 613.127 344.799C623.395 351.333 638.115 335.77 648.088 338.027C659.721 340.7 693.079 371.174 701.271 381.212C710.59 392.677 719.969 414.062 725.25 428.793C733.501 451.841 732.373 463.127 749.408 479.998C760.27 490.75 749.942 491.522 767.63 494.67C779.204 496.749 794.518 488.374 806.212 487.067C830.549 484.394 855.122 489.027 879.102 484.453C901.421 480.176 922.729 473.166 945.64 469.899C965.465 467.048 1000.37 469.246 1017.94 459.801C1036.99 449.643 1038.71 426.654 1011.17 430.932C1008.97 416.26 1018.77 396.003 1007.85 385.847C1023.04 365.056 1028.56 350.384 1030.93 324.959C1032 313.792 1032.48 301.436 1038 292.05C1043.4 282.783 1058.59 277.259 1061.56 269.299C1066.13 256.943 1058.83 251.419 1053.25 244.528C1049.69 240.073 1039.54 242.212 1036.63 238.291C1031.23 231.103 1036.57 223.678 1033.6 216.431C1024.94 195.462 1014.61 187.205 1008.08 163.444C1008.26 167.424 1008.44 171.463 1008.2 175.384" stroke="white" stroke-width="2" stroke-linecap="round" stroke-linejoin="round"/>
</g>
<path d="M730 85.5C721.432 108.881 740.614 115.526 756.675 130.807C761.434 135.336 761.888 142.817 756.879 147.342C746.107 157.074 705.264 142.917 707.854 155.745C710.53 168.994 745.061 187.531 746.618 188.799C760.284 199.932 764.735 228.174 757.208 243.658C751.852 254.676 716.342 250.962 705.172 247.293C632.024 223.266 664.985 226.131 582.817 218.67C576.527 218.099 569.935 217.806 563.894 219.65C557.671 221.549 557.869 229.339 559.957 233.55C566.876 247.506 597.849 271.178 589.514 289.523C586.956 295.152 580.963 298.707 578.264 304.27C576.151 308.627 576.385 313.772 575.445 318.523" stroke="white" stroke-width="2"/>
<path fill-rule="evenodd" clip-rule="evenodd" d="M576 321C577.657 321 579 319.657 579 318C579 316.343 577.657 315 576 315C574.343 315 573 316.343 573 318C573 319.657 574.343 321 576 321Z" fill="#4AF6CD"/>
<path d="M729.5 86C765.5 83.1667 843.5 95.3 867.5 166.5C871.5 179.5 884 214.5 878 249.5C873.2 277.5 861 268 857.5 259C855 250.5 848.8 235.7 838 238.5C824.5 242 822.891 262.261 830 267C833 269 852.893 285.456 840 283C819 279 817.5 293.438 817.5 301.5C817.5 330.5 843 353.5 871.5 375C887 386.333 915.8 417.2 907 450C898.2 482.8 868 482.667 854 478C829 469.333 768.1 455.2 724.5 468" stroke="white" stroke-width="2"/>
<path d="M729.5 86C700.167 88 608.72 84.3045 567 144.5C532 195 515.5 147 534.5 115.5C550.5 85.5 544 39.9999 486.5 110C454.541 148.906 436 195.5 436 213C435.667 221.667 430.7 238.8 413.5 238C392 237 392 228 387 220.5C382 213 377.8 208.7 365 225.5" stroke="white" stroke-width="2" stroke-linejoin="round"/>
<path d="M663.5 359.5C714.5 355.5 745.202 337.232 754.5 323C779 285.5 740.5 260 760.5 218C767 191.5 747.753 164.745 753 155.5C763.5 137 765.653 137.121 741.5 118C729.5 108.5 727 101 728.2 92.5C728.467 90.6667 729.3 87 730.3 85.5" stroke="white" stroke-width="2"/>
<path d="M740 85.6L740.026 84.6003L740.004 84.5997L739.982 84.6001L740 85.6ZM745 85.73L745.044 84.731L745.035 84.7306L745.026 84.7303L745 85.73ZM747.5 85.84L747.564 84.842L747.554 84.8414L747.544 84.841L747.5 85.84ZM722 86.39L722.039 87.3893L722.049 87.3888L722 86.39ZM749.079 67.1115L748.654 68.0163L749.079 67.1115ZM749.78 79.1232L749.216 78.2972L749.216 78.2972L749.78 79.1232ZM750.13 84.7758L751.123 84.8988L751.123 84.8988L750.13 84.7758ZM746.627 94.6678L745.793 94.1164L745.793 94.1164L746.627 94.6678ZM723.859 102.44L724.569 103.144L724.569 103.144L723.859 102.44ZM720.706 103.5L720.35 104.435L720.366 104.44L720.382 104.446L720.706 103.5ZM718.352 98.4975L719.29 98.846L718.352 98.4975ZM714.149 91.4318L715.13 91.2372L715.13 91.2372L714.149 91.4318ZM713 77.0035L712.022 77.2142L712.022 77.2142L713 77.0035ZM722.107 67.1115L722.859 67.7715L722.859 67.7715L722.107 67.1115ZM728.511 69.1747L729.154 69.9403L729.154 69.9403L728.511 69.1747ZM739 81.454L739.171 80.4687L739.171 80.4687L739 81.454ZM732.5 80L733.394 79.5528L733.394 79.5528L732.5 80ZM715.246 93.0269L714.714 93.8734L714.714 93.8734L715.246 93.0269ZM723 96L723.243 95.0299L723.243 95.0299L723 96ZM728 94.1159L728.844 94.6527L728.967 94.4595L728.993 94.2321L728 94.1159ZM716.5 73.5L715.633 73.0017L715.633 73.0017L716.5 73.5ZM719 78L718.49 78.8603L718.521 78.8785L718.553 78.8944L719 78ZM729.5 85.5H728.5V85.9142L728.793 86.2071L729.5 85.5ZM735.5 85.68L735.46 84.6808L735.451 84.6812L735.442 84.6817L735.5 85.68ZM738 92.0003L738.6 92.8003L738.6 92.8003L738 92.0003ZM735 95.0002L735.949 95.3165L735.949 95.3164L735 95.0002ZM734.5 97.5002L733.606 97.9474L733.606 97.9474L734.5 97.5002ZM735 99.0002L734.106 98.553L734.106 98.553L735 99.0002ZM728.8 89.5L729.775 89.7238L729.775 89.7228L728.8 89.5ZM728 98L727.006 98.1058L727.008 98.1313L727.012 98.1565L728 98ZM729.2 87.75L728.291 87.3342L728.248 87.4273L728.225 87.5272L729.2 87.75ZM728.27 91.8079L727.295 91.5841L727.283 91.6374L727.277 91.6917L728.27 91.8079ZM728.5 101.155L728.586 102.151L728.5 101.155ZM739.974 86.5996L744.974 86.7297L745.026 84.7303L740.026 84.6003L739.974 86.5996ZM744.956 86.729L747.456 86.839L747.544 84.841L745.044 84.731L744.956 86.729ZM747.436 86.838L749.936 86.9979L750.064 85.002L747.564 84.842L747.436 86.838ZM721.961 85.3907L714.461 85.6807L714.539 87.6792L722.039 87.3893L721.961 85.3907ZM738.877 71.4177C740.049 70.6296 741.528 69.3766 743.354 68.4744C745.142 67.5912 746.956 67.2171 748.654 68.0163L749.505 66.2067C747 65.0275 744.484 65.685 742.468 66.6813C740.49 67.6586 738.69 69.133 737.761 69.758L738.877 71.4177ZM748.654 68.0163C750.98 69.1114 752.13 70.9726 752.238 72.8494C752.346 74.7341 751.41 76.8004 749.216 78.2972L750.344 79.9493C753.046 78.106 754.387 75.4029 754.234 72.735C754.081 70.0592 752.433 67.5846 749.505 66.2067L748.654 68.0163ZM749.216 78.2972C748.499 78.7865 748.109 79.4946 747.963 80.1721C747.824 80.8203 747.887 81.547 748.22 82.1075L749.939 81.085C749.939 81.0852 749.932 81.073 749.923 81.0452C749.914 81.0179 749.906 80.9803 749.9 80.933C749.888 80.837 749.892 80.7189 749.919 80.5933C749.972 80.344 750.108 80.1101 750.344 79.9493L749.216 78.2972ZM749.105 82.5959C749.449 82.5871 749.454 82.6809 749.409 82.6258C749.4 82.6149 749.457 82.6823 749.456 82.9504C749.455 83.2024 749.403 83.5003 749.331 83.8085C749.295 83.9614 749.26 84.0951 749.226 84.2324C749.198 84.3432 749.156 84.5097 749.138 84.6528L751.123 84.8988C751.122 84.9022 751.129 84.8629 751.165 84.7205C751.194 84.6048 751.238 84.4381 751.279 84.2623C751.36 83.913 751.453 83.4404 751.456 82.9602C751.458 82.4962 751.377 81.87 750.954 81.3555C750.494 80.7968 749.81 80.5771 749.054 80.5966L749.105 82.5959ZM749.138 84.6528C748.795 87.4171 748.471 90.065 745.793 94.1164L747.462 95.2193C750.388 90.7918 750.765 87.7871 751.123 84.8988L749.138 84.6528ZM745.793 94.1164C744.439 96.1659 743.069 97.6314 741.537 98.5893C740.019 99.538 738.281 100.027 736.119 100.027V102.027C738.609 102.027 740.724 101.456 742.597 100.285C744.455 99.1233 746.014 97.4092 747.462 95.2193L745.793 94.1164ZM723.149 101.736C722.645 102.244 722.435 102.757 722.349 103.203C722.31 103.402 722.298 103.586 722.291 103.668C722.279 103.808 722.274 103.712 722.331 103.589C722.372 103.501 722.445 103.39 722.567 103.296C722.687 103.204 722.803 103.167 722.878 103.152C722.991 103.13 723.025 103.157 722.866 103.125C722.573 103.066 722.036 102.899 721.031 102.554L720.382 104.446C721.352 104.779 722.022 104.996 722.472 105.086C722.684 105.129 722.973 105.172 723.263 105.115C723.427 105.083 723.613 105.015 723.786 104.881C723.963 104.746 724.076 104.581 724.147 104.428C724.263 104.177 724.278 103.908 724.284 103.84C724.295 103.714 724.299 103.655 724.313 103.583C724.331 103.486 724.372 103.343 724.569 103.144L723.149 101.736ZM721.062 102.565C720.554 102.372 720.137 102.207 719.789 102.016C719.448 101.829 719.235 101.649 719.103 101.462C718.885 101.152 718.675 100.499 719.29 98.846L717.415 98.149C716.716 100.029 716.681 101.495 717.468 102.613C717.838 103.14 718.335 103.5 718.828 103.77C719.314 104.037 719.857 104.247 720.35 104.435L721.062 102.565ZM715.13 91.2372C714.806 89.604 714.948 88.2016 714.968 85.9489C714.988 83.7382 714.871 80.9394 713.978 76.7928L712.022 77.2142C712.88 81.1932 712.987 83.8421 712.969 85.9309C712.95 87.9777 712.791 89.7266 713.168 91.6263L715.13 91.2372ZM713.978 76.7928C713.106 72.7487 713.1 70.4141 713.508 69.1381C713.7 68.5374 713.966 68.227 714.233 68.051C714.512 67.8667 714.9 67.7582 715.452 67.7582V65.7582C714.651 65.7582 713.839 65.9146 713.131 66.3817C712.411 66.8571 711.904 67.5845 711.603 68.5294C711.022 70.3447 711.143 73.1327 712.022 77.2142L713.978 76.7928ZM715.452 67.7582C715.916 67.7582 716.311 67.8995 716.719 68.1295C716.928 68.2479 717.132 68.3846 717.357 68.5393C717.57 68.6859 717.819 68.8617 718.068 69.0135C718.57 69.32 719.236 69.6389 720.056 69.557C720.871 69.4758 721.627 69.0224 722.385 68.2757L720.98 66.8517C720.386 67.4373 720.034 67.5494 719.858 67.5669C719.688 67.5839 719.484 67.5348 719.111 67.3068C718.922 67.1914 718.733 67.0584 718.491 66.892C718.261 66.7337 717.995 66.5533 717.702 66.388C717.105 66.0507 716.368 65.7582 715.452 65.7582V67.7582ZM722.385 68.2757C722.54 68.1224 722.698 67.9545 722.859 67.7715L721.356 66.4514C721.223 66.6029 721.098 66.7356 720.98 66.8517L722.385 68.2757ZM722.859 67.7715C723.571 66.9609 724.898 66.9583 726.26 67.6157C726.903 67.9255 727.383 68.3138 727.616 68.6133C727.736 68.7684 727.729 68.8216 727.723 68.7705C727.71 68.6562 727.763 68.4972 727.867 68.4092L729.154 69.9403C729.593 69.5713 729.77 69.0531 729.709 68.536C729.656 68.0821 729.429 67.6887 729.196 67.388C728.722 66.7759 727.961 66.2153 727.13 65.8144C725.546 65.0501 723.002 64.5779 721.356 66.4514L722.859 67.7715ZM727.867 68.4092C727.561 68.6668 726.976 69.2867 727.297 70.1064C727.43 70.4478 727.677 70.6639 727.869 70.7919C728.066 70.9241 728.285 71.0174 728.488 71.0869C729.264 71.3524 730.455 71.4764 731.652 71.5422C734.096 71.6767 737.142 71.5879 738.319 71.5879V69.5879C737.043 69.5879 734.134 69.6757 731.762 69.5452C730.55 69.4786 729.618 69.3596 729.135 69.1945C729.083 69.1766 729.044 69.1608 729.017 69.1481C728.989 69.1352 728.979 69.1284 728.982 69.1302C728.984 69.1316 729.008 69.1482 729.042 69.1846C729.076 69.2222 729.123 69.2861 729.159 69.3788C729.355 69.8797 728.935 70.1242 729.154 69.9403L727.867 68.4092ZM748.864 80.6196C747.561 80.9065 743.458 81.2124 739.171 80.4687L738.829 82.4393C743.342 83.222 747.709 82.922 749.294 82.5728L748.864 80.6196ZM739.171 80.4687C736.003 79.9193 733.328 81.3014 731.524 82.8168L732.81 84.348C734.365 83.0417 736.461 82.0285 738.829 82.4393L739.171 80.4687ZM731.524 82.8168C730.456 83.7141 729.644 84.6971 729.156 85.4631L730.844 86.5369C731.222 85.943 731.899 85.1143 732.81 84.348L731.524 82.8168ZM737.639 69.8544C736.443 70.963 734.635 72.7658 733.27 74.6205C732.59 75.5445 731.985 76.5274 731.634 77.477C731.29 78.4062 731.124 79.4835 731.606 80.4472L733.394 79.5528C733.276 79.3165 733.243 78.8904 733.509 78.1712C733.768 77.4724 734.251 76.6619 734.881 75.806C736.136 74.1008 737.837 72.3975 738.998 71.3213L737.639 69.8544ZM731.606 80.4472C732.004 81.2434 731.848 82.1391 731.302 83.0809L733.032 84.0839C733.747 82.8502 734.218 81.1995 733.394 79.5528L731.606 80.4472ZM731.302 83.0809C730.776 83.9876 729.975 84.7688 729.4 85.2L730.6 86.8C731.335 86.249 732.341 85.2764 733.032 84.0839L731.302 83.0809ZM719.29 98.846C719.833 97.384 720.028 96.2162 719.833 95.2672C719.621 94.2319 718.985 93.6245 718.298 93.2422L717.325 94.9895C717.655 95.1731 717.81 95.3555 717.874 95.6691C717.956 96.0689 717.913 96.8091 717.415 98.149L719.29 98.846ZM718.298 93.2422C717.891 93.0154 717.446 92.8559 717.076 92.7256L716.412 94.6124C716.795 94.7469 717.087 94.8566 717.325 94.9895L718.298 93.2422ZM717.076 92.7256C716.522 92.531 716.113 92.3911 715.778 92.1804L714.714 93.8734C715.281 94.2299 715.934 94.4443 716.412 94.6124L717.076 92.7256ZM715.778 92.1804C715.45 91.974 715.225 91.7194 715.13 91.2372L713.168 91.6263C713.386 92.7274 713.993 93.4203 714.714 93.8734L715.778 92.1804ZM714.847 93.9436C715.263 94.125 715.781 94.3476 716.355 94.5901L717.133 92.7478C716.565 92.508 716.054 92.2884 715.646 92.1102L714.847 93.9436ZM716.355 94.5901C716.696 94.7343 717.057 94.8856 717.429 95.0397L718.195 93.192C717.827 93.0399 717.47 92.8903 717.133 92.7478L716.355 94.5901ZM717.429 95.0397C719.452 95.8778 721.603 96.6816 722.758 96.9701L723.243 95.0299C722.249 94.7814 720.221 94.0316 718.195 93.192L717.429 95.0397ZM722.758 96.9701C724.663 97.4465 727.389 96.9381 728.844 94.6527L727.156 93.579C726.277 94.9603 724.537 95.3535 723.243 95.0299L722.758 96.9701ZM721.383 66.4226C721.252 66.5603 721.107 66.7145 720.95 66.8825L722.415 68.2449C722.566 68.0816 722.707 67.9325 722.832 67.8004L721.383 66.4226ZM720.95 66.8825C720.269 67.6147 719.122 68.7835 718.153 69.8384C717.166 70.9128 716.165 72.0765 715.633 73.0017L717.367 73.9983C717.773 73.2926 718.625 72.281 719.626 71.1914C720.645 70.0822 721.62 69.0983 722.415 68.2449L720.95 66.8825ZM715.633 73.0017C714.822 74.4128 715.391 75.8027 716.084 76.7391C716.784 77.6858 717.785 78.4424 718.49 78.8603L719.51 77.1397C718.95 76.8081 718.184 76.2153 717.692 75.5497C717.191 74.8737 717.143 74.3884 717.367 73.9983L715.633 73.0017ZM718.553 78.8944C718.868 79.0519 719.23 79.1735 719.482 79.2665C719.764 79.3701 720.005 79.4694 720.236 79.6075C720.655 79.8594 721.145 80.3043 721.572 81.3714L723.429 80.6286C722.855 79.1957 722.095 78.3906 721.265 77.8925C720.87 77.6556 720.486 77.5049 720.174 77.3898C719.833 77.264 719.632 77.1981 719.447 77.1056L718.553 78.8944ZM721.572 81.3714C722.124 82.7512 722.764 83.5174 723.656 83.9138C724.054 84.0905 724.455 84.1702 724.769 84.2315C725.106 84.2971 725.382 84.3481 725.684 84.4487L726.316 82.5513C725.868 82.4019 725.457 82.3279 725.153 82.2685C724.826 82.2048 724.634 82.1595 724.469 82.0862C724.236 81.9826 723.877 81.7488 723.429 80.6286L721.572 81.3714ZM725.684 84.4487C726.111 84.591 726.566 84.6953 726.951 84.7859C727.359 84.8819 727.692 84.9633 727.971 85.0648C728.254 85.1677 728.386 85.2592 728.444 85.3191C728.471 85.3471 728.5 85.3778 728.5 85.5H730.5C730.5 84.8722 730.279 84.3404 729.884 83.9309C729.52 83.5533 729.059 83.3323 728.654 83.1852C728.246 83.0367 727.798 82.9306 727.409 82.8391C726.997 82.7422 726.639 82.659 726.316 82.5513L725.684 84.4487ZM735.54 86.6792C736.604 86.6367 737.633 86.7072 738.473 86.893C739.35 87.087 739.861 87.3713 740.08 87.6248C740.17 87.73 740.204 87.8211 740.211 87.9173C740.219 88.0248 740.198 88.216 740.048 88.514C739.736 89.137 738.96 90.0304 737.4 91.2003L738.6 92.8003C740.24 91.5702 741.314 90.451 741.836 89.4108C742.104 88.8772 742.246 88.3242 742.205 87.7701C742.164 87.2046 741.936 86.7166 741.596 86.3205C740.951 85.5714 739.919 85.1644 738.905 84.9402C737.855 84.7079 736.646 84.6334 735.46 84.6808L735.54 86.6792ZM737.4 91.2003C737.086 91.4356 736.785 91.6396 736.47 91.8577C736.164 92.0694 735.844 92.2955 735.544 92.547C734.923 93.0693 734.374 93.7147 734.051 94.684L735.949 95.3164C736.126 94.7857 736.411 94.4311 736.831 94.0785C737.052 93.8924 737.305 93.7123 737.608 93.5022C737.903 93.2985 738.247 93.0649 738.6 92.8003L737.4 91.2003ZM734.051 94.684C734.052 94.6833 734.043 94.7067 734.012 94.7705C733.981 94.8329 733.945 94.9017 733.895 94.9986C733.801 95.1782 733.672 95.4276 733.566 95.7067C733.352 96.2663 733.176 97.0892 733.606 97.9474L735.394 97.053C735.324 96.9113 735.314 96.7341 735.435 96.4187C735.495 96.2604 735.574 96.1035 735.668 95.9237C735.742 95.7824 735.875 95.537 735.949 95.3165L734.051 94.684ZM733.606 97.9474C733.639 98.0147 733.678 98.0823 733.708 98.1349C733.735 98.1798 733.782 98.26 733.808 98.3039C733.875 98.419 733.934 98.5253 733.981 98.6251C734.031 98.7303 734.047 98.7884 734.05 98.806C734.054 98.8288 734.026 98.7129 734.106 98.553L735.894 99.4474C736.082 99.0723 736.063 98.6984 736.017 98.446C735.97 98.1884 735.876 97.9541 735.792 97.7753C735.705 97.5911 735.609 97.4217 735.535 97.2949C735.445 97.1416 735.412 97.0885 735.394 97.053L733.606 97.9474ZM734.106 98.553C733.952 98.861 733.699 99.3193 733.448 99.6876C733.32 99.8753 733.216 100.006 733.144 100.079C733.107 100.116 733.104 100.113 733.132 100.095C733.15 100.084 733.283 99.9998 733.5 99.9998V102C733.817 102 734.062 101.874 734.199 101.787C734.347 101.694 734.472 101.581 734.569 101.483C734.763 101.285 734.946 101.041 735.102 100.812C735.418 100.348 735.715 99.8061 735.894 99.4474L734.106 98.553ZM735.442 84.6817L729.942 85.0017L730.058 86.9983L735.558 86.6783L735.442 84.6817ZM728.793 86.2071L729.293 86.7071L730.707 85.2929L730.207 84.7929L728.793 86.2071ZM727 94C727 94.8344 726.831 96.4656 727.006 98.1058L728.994 97.8942C728.832 96.3706 729 95.1656 729 94L727 94ZM729.775 89.7228L730.175 87.9728L728.225 87.5272L727.825 89.2772L729.775 89.7228ZM730.109 88.1658L730.91 86.4158L729.091 85.5842L728.291 87.3342L730.109 88.1658ZM728.993 94.2321L729.263 91.9241L727.277 91.6917L727.007 93.9997L728.993 94.2321ZM729.245 92.0318L729.775 89.7238L727.825 89.2762L727.295 91.5841L729.245 92.0318ZM739.982 84.6001L735.482 84.6802L735.518 86.6799L740.018 86.5998L739.982 84.6001ZM722.049 87.3888L730.049 86.9988L729.951 85.0012L721.951 85.3912L722.049 87.3888ZM736.119 100.027C734.749 100.027 731.345 99.9064 728.414 100.158L728.586 102.151C731.402 101.909 734.638 102.027 736.119 102.027V100.027ZM728.414 100.158C727.354 100.25 726.316 100.392 725.431 100.618C724.585 100.834 723.716 101.164 723.149 101.736L724.569 103.144C724.735 102.977 725.152 102.753 725.926 102.556C726.66 102.368 727.577 102.238 728.586 102.151L728.414 100.158ZM727.012 98.1565L727.512 101.311L729.488 100.998L728.988 97.8435L727.012 98.1565Z" fill="white"/>
<path fill-rule="evenodd" clip-rule="evenodd" d="M725 471C726.657 471 728 469.657 728 468C728 466.343 726.657 465 725 465C723.343 465 722 466.343 722 468C722 469.657 723.343 471 725 471Z" fill="#4AF6CD"/>
<path fill-rule="evenodd" clip-rule="evenodd" d="M366 228C367.657 228 369 226.657 369 225C369 223.343 367.657 222 366 222C364.343 222 363 223.343 363 225C363 226.657 364.343 228 366 228Z" fill="#4AF6CD"/>
<path fill-rule="evenodd" clip-rule="evenodd" d="M663.728 362.226C665.385 362.226 666.728 360.882 666.728 359.226C666.728 357.569 665.385 356.226 663.728 356.226C662.072 356.226 660.728 357.569 660.728 359.226C660.728 360.882 662.072 362.226 663.728 362.226Z" fill="#4AF6CD"/>
<path d="M388.359 322H386.327L381.847 312.64C381.911 313.376 381.959 314.059 381.991 314.688C382.034 315.307 382.055 316.059 382.055 316.944V322H380.631V310.976H382.615L387.143 320.352C387.111 320.075 387.069 319.589 387.015 318.896C386.962 318.203 386.935 317.568 386.935 316.992V310.976H388.359V322ZM394.641 313.376C395.825 313.376 396.742 313.771 397.393 314.56C398.054 315.349 398.385 316.421 398.385 317.776C398.385 318.651 398.236 319.424 397.937 320.096C397.638 320.757 397.206 321.275 396.641 321.648C396.076 322.011 395.404 322.192 394.625 322.192C393.441 322.192 392.518 321.797 391.857 321.008C391.196 320.219 390.865 319.147 390.865 317.792C390.865 316.917 391.014 316.149 391.313 315.488C391.612 314.816 392.044 314.299 392.609 313.936C393.174 313.563 393.852 313.376 394.641 313.376ZM394.641 314.56C393.18 314.56 392.449 315.637 392.449 317.792C392.449 319.936 393.174 321.008 394.625 321.008C396.076 321.008 396.801 319.931 396.801 317.776C396.801 315.632 396.081 314.56 394.641 314.56ZM404.481 313.376C404.78 313.376 405.057 313.408 405.313 313.472L405.041 314.912C404.785 314.848 404.54 314.816 404.305 314.816C403.782 314.816 403.361 315.008 403.041 315.392C402.721 315.776 402.47 316.373 402.289 317.184V322H400.817V313.568H402.081L402.225 315.28C402.449 314.651 402.753 314.176 403.137 313.856C403.521 313.536 403.969 313.376 404.481 313.376ZM411.245 321.616C410.69 322 410.061 322.192 409.357 322.192C408.642 322.192 408.082 321.989 407.677 321.584C407.282 321.168 407.085 320.571 407.085 319.792V314.704H405.613V313.568H407.085V311.664L408.557 311.488V313.568H410.557L410.397 314.704H408.557V319.728C408.557 320.165 408.631 320.485 408.781 320.688C408.941 320.88 409.202 320.976 409.565 320.976C409.895 320.976 410.269 320.864 410.685 320.64L411.245 321.616ZM416.738 313.376C417.506 313.376 418.103 313.605 418.53 314.064C418.967 314.523 419.186 315.152 419.186 315.952V322H417.714V316.16C417.714 315.563 417.597 315.141 417.362 314.896C417.138 314.651 416.807 314.528 416.37 314.528C415.933 314.528 415.543 314.656 415.202 314.912C414.861 315.168 414.541 315.531 414.242 316V322H412.77V310.192L414.242 310.032V314.736C414.903 313.829 415.735 313.376 416.738 313.376ZM429.179 310.784C429.915 310.784 430.545 310.891 431.067 311.104C431.59 311.307 432.097 311.627 432.587 312.064L431.755 312.992C431.339 312.661 430.929 312.421 430.523 312.272C430.129 312.112 429.702 312.032 429.243 312.032C428.667 312.032 428.193 312.165 427.819 312.432C427.446 312.699 427.259 313.088 427.259 313.6C427.259 313.92 427.323 314.192 427.451 314.416C427.579 314.629 427.814 314.827 428.155 315.008C428.507 315.189 429.014 315.381 429.675 315.584C430.369 315.797 430.945 316.027 431.403 316.272C431.862 316.517 432.23 316.859 432.507 317.296C432.795 317.723 432.939 318.267 432.939 318.928C432.939 319.568 432.779 320.133 432.459 320.624C432.15 321.115 431.697 321.499 431.099 321.776C430.513 322.053 429.814 322.192 429.003 322.192C427.478 322.192 426.23 321.717 425.259 320.768L426.091 319.84C426.539 320.203 426.993 320.48 427.451 320.672C427.91 320.853 428.422 320.944 428.987 320.944C429.67 320.944 430.235 320.779 430.683 320.448C431.131 320.107 431.355 319.616 431.355 318.976C431.355 318.613 431.286 318.315 431.147 318.08C431.009 317.835 430.769 317.616 430.427 317.424C430.097 317.232 429.611 317.04 428.971 316.848C427.841 316.507 427.014 316.096 426.491 315.616C425.969 315.136 425.707 314.485 425.707 313.664C425.707 313.109 425.851 312.613 426.139 312.176C426.438 311.739 426.849 311.397 427.371 311.152C427.905 310.907 428.507 310.784 429.179 310.784ZM439.066 313.376C439.834 313.376 440.431 313.605 440.858 314.064C441.295 314.523 441.514 315.152 441.514 315.952V322H440.042V316.16C440.042 315.563 439.925 315.141 439.69 314.896C439.466 314.651 439.135 314.528 438.698 314.528C438.261 314.528 437.871 314.656 437.53 314.912C437.189 315.168 436.869 315.531 436.57 316V322H435.098V310.192L436.57 310.032V314.736C437.231 313.829 438.063 313.376 439.066 313.376ZM447.641 313.376C448.825 313.376 449.742 313.771 450.393 314.56C451.054 315.349 451.385 316.421 451.385 317.776C451.385 318.651 451.236 319.424 450.937 320.096C450.638 320.757 450.206 321.275 449.641 321.648C449.076 322.011 448.404 322.192 447.625 322.192C446.441 322.192 445.518 321.797 444.857 321.008C444.196 320.219 443.865 319.147 443.865 317.792C443.865 316.917 444.014 316.149 444.313 315.488C444.612 314.816 445.044 314.299 445.609 313.936C446.174 313.563 446.852 313.376 447.641 313.376ZM447.641 314.56C446.18 314.56 445.449 315.637 445.449 317.792C445.449 319.936 446.174 321.008 447.625 321.008C449.076 321.008 449.801 319.931 449.801 317.776C449.801 315.632 449.081 314.56 447.641 314.56ZM457.481 313.376C457.78 313.376 458.057 313.408 458.313 313.472L458.041 314.912C457.785 314.848 457.54 314.816 457.305 314.816C456.782 314.816 456.361 315.008 456.041 315.392C455.721 315.776 455.47 316.373 455.289 317.184V322H453.817V313.568H455.081L455.225 315.28C455.449 314.651 455.753 314.176 456.137 313.856C456.521 313.536 456.969 313.376 457.481 313.376ZM465.872 317.536C465.872 317.781 465.862 318.032 465.84 318.288H460.464C460.528 319.216 460.763 319.899 461.168 320.336C461.574 320.773 462.096 320.992 462.736 320.992C463.142 320.992 463.515 320.933 463.856 320.816C464.198 320.699 464.555 320.512 464.928 320.256L465.568 321.136C464.672 321.84 463.691 322.192 462.624 322.192C461.451 322.192 460.534 321.808 459.872 321.04C459.222 320.272 458.896 319.216 458.896 317.872C458.896 316.997 459.035 316.224 459.312 315.552C459.6 314.869 460.006 314.336 460.528 313.952C461.062 313.568 461.686 313.376 462.4 313.376C463.52 313.376 464.379 313.744 464.976 314.48C465.574 315.216 465.872 316.235 465.872 317.536ZM464.416 317.104C464.416 316.272 464.251 315.637 463.92 315.2C463.59 314.763 463.094 314.544 462.432 314.544C461.227 314.544 460.571 315.429 460.464 317.2H464.416V317.104ZM474.41 309.184V323.568H474.058V309.184H474.41ZM493.237 322H491.765L491.381 317.024C491.221 315.072 491.131 313.573 491.109 312.528L488.725 320.752H487.301L484.789 312.512C484.789 313.845 484.72 315.387 484.581 317.136L484.213 322H482.773L483.685 310.976H485.733L488.053 318.992L490.261 310.976H492.325L493.237 322ZM501.434 320.032C501.434 320.373 501.493 320.629 501.61 320.8C501.728 320.96 501.904 321.083 502.138 321.168L501.802 322.192C501.365 322.139 501.013 322.016 500.746 321.824C500.48 321.632 500.282 321.333 500.154 320.928C499.589 321.771 498.752 322.192 497.642 322.192C496.81 322.192 496.154 321.957 495.674 321.488C495.194 321.019 494.954 320.405 494.954 319.648C494.954 318.752 495.274 318.064 495.914 317.584C496.565 317.104 497.482 316.864 498.666 316.864H499.962V316.24C499.962 315.643 499.818 315.216 499.53 314.96C499.242 314.704 498.8 314.576 498.202 314.576C497.584 314.576 496.826 314.725 495.93 315.024L495.562 313.952C496.608 313.568 497.578 313.376 498.474 313.376C499.466 313.376 500.208 313.621 500.698 314.112C501.189 314.592 501.434 315.28 501.434 316.176V320.032ZM497.978 321.088C498.821 321.088 499.482 320.651 499.962 319.776V317.84H498.858C497.301 317.84 496.522 318.416 496.522 319.568C496.522 320.069 496.645 320.448 496.89 320.704C497.136 320.96 497.498 321.088 497.978 321.088ZM505.981 322.192C505.437 322.192 505.005 322.032 504.685 321.712C504.376 321.381 504.221 320.923 504.221 320.336V310.176L505.693 310V320.304C505.693 320.539 505.731 320.709 505.805 320.816C505.891 320.923 506.029 320.976 506.221 320.976C506.424 320.976 506.605 320.944 506.765 320.88L507.149 321.904C506.797 322.096 506.408 322.192 505.981 322.192ZM510.461 313.568V322H508.989V313.568H510.461ZM509.709 309.52C510.018 309.52 510.269 309.616 510.461 309.808C510.653 310 510.749 310.24 510.749 310.528C510.749 310.816 510.653 311.056 510.461 311.248C510.269 311.429 510.018 311.52 509.709 311.52C509.41 311.52 509.165 311.429 508.973 311.248C508.781 311.056 508.685 310.816 508.685 310.528C508.685 310.24 508.781 310 508.973 309.808C509.165 309.616 509.41 309.52 509.709 309.52ZM517.36 313.376C518.32 313.376 519.083 313.765 519.648 314.544C520.214 315.312 520.496 316.389 520.496 317.776C520.496 318.651 520.363 319.424 520.096 320.096C519.83 320.757 519.446 321.275 518.944 321.648C518.443 322.011 517.856 322.192 517.184 322.192C516.299 322.192 515.552 321.819 514.944 321.072L514.8 322H513.504V310.176L514.976 310V314.624C515.584 313.792 516.379 313.376 517.36 313.376ZM516.832 321.024C517.483 321.024 517.99 320.763 518.352 320.24C518.726 319.707 518.912 318.885 518.912 317.776C518.912 316.635 518.742 315.813 518.4 315.312C518.059 314.8 517.574 314.544 516.944 314.544C516.198 314.544 515.542 314.981 514.976 315.856V319.888C515.2 320.24 515.472 320.517 515.792 320.72C516.123 320.923 516.47 321.024 516.832 321.024ZM529.276 322H528.012L527.9 320.688C527.58 321.211 527.212 321.595 526.796 321.84C526.38 322.075 525.874 322.192 525.276 322.192C524.54 322.192 523.964 321.968 523.548 321.52C523.132 321.072 522.924 320.437 522.924 319.616V313.568H524.396V319.456C524.396 320.032 524.498 320.443 524.7 320.688C524.903 320.923 525.234 321.04 525.692 321.04C526.514 321.04 527.218 320.555 527.804 319.584V313.568H529.276V322ZM532.701 319.968C533.021 319.968 533.288 320.075 533.501 320.288C533.714 320.501 533.821 320.763 533.821 321.072C533.821 321.403 533.725 321.781 533.533 322.208L532.461 324.656H531.405L532.045 322C531.906 321.893 531.794 321.76 531.709 321.6C531.634 321.44 531.597 321.264 531.597 321.072C531.597 320.763 531.704 320.501 531.917 320.288C532.13 320.075 532.392 319.968 532.701 319.968ZM544.331 310.784C544.992 310.784 545.547 310.869 545.995 311.04C546.454 311.211 546.918 311.488 547.387 311.872L546.555 312.848C545.883 312.304 545.174 312.032 544.427 312.032C543.51 312.032 542.768 312.384 542.203 313.088C541.648 313.792 541.371 314.923 541.371 316.48C541.371 317.995 541.648 319.115 542.203 319.84C542.758 320.555 543.494 320.912 544.411 320.912C544.88 320.912 545.291 320.832 545.643 320.672C545.995 320.512 546.368 320.288 546.763 320L547.515 320.96C547.174 321.312 546.736 321.605 546.203 321.84C545.67 322.075 545.056 322.192 544.363 322.192C543.467 322.192 542.667 321.973 541.963 321.536C541.27 321.088 540.726 320.437 540.331 319.584C539.947 318.72 539.755 317.685 539.755 316.48C539.755 315.275 539.958 314.245 540.363 313.392C540.768 312.528 541.318 311.877 542.011 311.44C542.704 311.003 543.478 310.784 544.331 310.784ZM555.3 322L554.468 319.232H550.292L549.46 322H547.924L551.46 310.976H553.38L556.9 322H555.3ZM550.66 318H554.1L552.388 312.24L550.66 318Z" fill="white"/>
<path d="M538.414 479.784C539.15 479.784 539.779 479.891 540.302 480.104C540.824 480.307 541.331 480.627 541.822 481.064L540.99 481.992C540.574 481.661 540.163 481.421 539.758 481.272C539.363 481.112 538.936 481.032 538.478 481.032C537.902 481.032 537.427 481.165 537.054 481.432C536.68 481.699 536.494 482.088 536.494 482.6C536.494 482.92 536.558 483.192 536.686 483.416C536.814 483.629 537.048 483.827 537.39 484.008C537.742 484.189 538.248 484.381 538.91 484.584C539.603 484.797 540.179 485.027 540.638 485.272C541.096 485.517 541.464 485.859 541.742 486.296C542.03 486.723 542.174 487.267 542.174 487.928C542.174 488.568 542.014 489.133 541.694 489.624C541.384 490.115 540.931 490.499 540.334 490.776C539.747 491.053 539.048 491.192 538.238 491.192C536.712 491.192 535.464 490.717 534.494 489.768L535.326 488.84C535.774 489.203 536.227 489.48 536.686 489.672C537.144 489.853 537.656 489.944 538.222 489.944C538.904 489.944 539.47 489.779 539.918 489.448C540.366 489.107 540.59 488.616 540.59 487.976C540.59 487.613 540.52 487.315 540.382 487.08C540.243 486.835 540.003 486.616 539.662 486.424C539.331 486.232 538.846 486.04 538.206 485.848C537.075 485.507 536.248 485.096 535.726 484.616C535.203 484.136 534.942 483.485 534.942 482.664C534.942 482.109 535.086 481.613 535.374 481.176C535.672 480.739 536.083 480.397 536.606 480.152C537.139 479.907 537.742 479.784 538.414 479.784ZM547.501 482.376C548.685 482.376 549.602 482.771 550.253 483.56C550.914 484.349 551.245 485.421 551.245 486.776C551.245 487.651 551.095 488.424 550.797 489.096C550.498 489.757 550.066 490.275 549.501 490.648C548.935 491.011 548.263 491.192 547.485 491.192C546.301 491.192 545.378 490.797 544.717 490.008C544.055 489.219 543.725 488.147 543.725 486.792C543.725 485.917 543.874 485.149 544.173 484.488C544.471 483.816 544.903 483.299 545.469 482.936C546.034 482.563 546.711 482.376 547.501 482.376ZM547.501 483.56C546.039 483.56 545.309 484.637 545.309 486.792C545.309 488.936 546.034 490.008 547.485 490.008C548.935 490.008 549.661 488.931 549.661 486.776C549.661 484.632 548.941 483.56 547.501 483.56ZM559.948 491H558.684L558.572 489.688C558.252 490.211 557.884 490.595 557.468 490.84C557.052 491.075 556.546 491.192 555.948 491.192C555.212 491.192 554.636 490.968 554.22 490.52C553.804 490.072 553.596 489.437 553.596 488.616V482.568H555.068V488.456C555.068 489.032 555.17 489.443 555.372 489.688C555.575 489.923 555.906 490.04 556.364 490.04C557.186 490.04 557.89 489.555 558.476 488.584V482.568H559.948V491ZM567.245 490.616C566.69 491 566.061 491.192 565.357 491.192C564.642 491.192 564.082 490.989 563.677 490.584C563.282 490.168 563.085 489.571 563.085 488.792V483.704H561.613V482.568H563.085V480.664L564.557 480.488V482.568H566.557L566.397 483.704H564.557V488.728C564.557 489.165 564.631 489.485 564.781 489.688C564.941 489.88 565.202 489.976 565.565 489.976C565.895 489.976 566.269 489.864 566.685 489.64L567.245 490.616ZM572.738 482.376C573.506 482.376 574.103 482.605 574.53 483.064C574.967 483.523 575.186 484.152 575.186 484.952V491H573.714V485.16C573.714 484.563 573.597 484.141 573.362 483.896C573.138 483.651 572.807 483.528 572.37 483.528C571.933 483.528 571.543 483.656 571.202 483.912C570.861 484.168 570.541 484.531 570.242 485V491H568.77V479.192L570.242 479.032V483.736C570.903 482.829 571.735 482.376 572.738 482.376ZM585.179 479.784C585.915 479.784 586.545 479.891 587.067 480.104C587.59 480.307 588.097 480.627 588.587 481.064L587.755 481.992C587.339 481.661 586.929 481.421 586.523 481.272C586.129 481.112 585.702 481.032 585.243 481.032C584.667 481.032 584.193 481.165 583.819 481.432C583.446 481.699 583.259 482.088 583.259 482.6C583.259 482.92 583.323 483.192 583.451 483.416C583.579 483.629 583.814 483.827 584.155 484.008C584.507 484.189 585.014 484.381 585.675 484.584C586.369 484.797 586.945 485.027 587.403 485.272C587.862 485.517 588.23 485.859 588.507 486.296C588.795 486.723 588.939 487.267 588.939 487.928C588.939 488.568 588.779 489.133 588.459 489.624C588.15 490.115 587.697 490.499 587.099 490.776C586.513 491.053 585.814 491.192 585.003 491.192C583.478 491.192 582.23 490.717 581.259 489.768L582.091 488.84C582.539 489.203 582.993 489.48 583.451 489.672C583.91 489.853 584.422 489.944 584.987 489.944C585.67 489.944 586.235 489.779 586.683 489.448C587.131 489.107 587.355 488.616 587.355 487.976C587.355 487.613 587.286 487.315 587.147 487.08C587.009 486.835 586.769 486.616 586.427 486.424C586.097 486.232 585.611 486.04 584.971 485.848C583.841 485.507 583.014 485.096 582.491 484.616C581.969 484.136 581.707 483.485 581.707 482.664C581.707 482.109 581.851 481.613 582.139 481.176C582.438 480.739 582.849 480.397 583.371 480.152C583.905 479.907 584.507 479.784 585.179 479.784ZM595.066 482.376C595.834 482.376 596.431 482.605 596.858 483.064C597.295 483.523 597.514 484.152 597.514 484.952V491H596.042V485.16C596.042 484.563 595.925 484.141 595.69 483.896C595.466 483.651 595.135 483.528 594.698 483.528C594.261 483.528 593.871 483.656 593.53 483.912C593.189 484.168 592.869 484.531 592.57 485V491H591.098V479.192L592.57 479.032V483.736C593.231 482.829 594.063 482.376 595.066 482.376ZM603.641 482.376C604.825 482.376 605.742 482.771 606.393 483.56C607.054 484.349 607.385 485.421 607.385 486.776C607.385 487.651 607.236 488.424 606.937 489.096C606.638 489.757 606.206 490.275 605.641 490.648C605.076 491.011 604.404 491.192 603.625 491.192C602.441 491.192 601.518 490.797 600.857 490.008C600.196 489.219 599.865 488.147 599.865 486.792C599.865 485.917 600.014 485.149 600.313 484.488C600.612 483.816 601.044 483.299 601.609 482.936C602.174 482.563 602.852 482.376 603.641 482.376ZM603.641 483.56C602.18 483.56 601.449 484.637 601.449 486.792C601.449 488.936 602.174 490.008 603.625 490.008C605.076 490.008 605.801 488.931 605.801 486.776C605.801 484.632 605.081 483.56 603.641 483.56ZM613.481 482.376C613.78 482.376 614.057 482.408 614.313 482.472L614.041 483.912C613.785 483.848 613.54 483.816 613.305 483.816C612.782 483.816 612.361 484.008 612.041 484.392C611.721 484.776 611.47 485.373 611.289 486.184V491H609.817V482.568H611.081L611.225 484.28C611.449 483.651 611.753 483.176 612.137 482.856C612.521 482.536 612.969 482.376 613.481 482.376ZM621.872 486.536C621.872 486.781 621.862 487.032 621.84 487.288H616.464C616.528 488.216 616.763 488.899 617.168 489.336C617.574 489.773 618.096 489.992 618.736 489.992C619.142 489.992 619.515 489.933 619.856 489.816C620.198 489.699 620.555 489.512 620.928 489.256L621.568 490.136C620.672 490.84 619.691 491.192 618.624 491.192C617.451 491.192 616.534 490.808 615.872 490.04C615.222 489.272 614.896 488.216 614.896 486.872C614.896 485.997 615.035 485.224 615.312 484.552C615.6 483.869 616.006 483.336 616.528 482.952C617.062 482.568 617.686 482.376 618.4 482.376C619.52 482.376 620.379 482.744 620.976 483.48C621.574 484.216 621.872 485.235 621.872 486.536ZM620.416 486.104C620.416 485.272 620.251 484.637 619.92 484.2C619.59 483.763 619.094 483.544 618.432 483.544C617.227 483.544 616.571 484.429 616.464 486.2H620.416V486.104ZM630.41 478.184V492.568H630.058V478.184H630.41ZM649.237 491H647.765L647.381 486.024C647.221 484.072 647.131 482.573 647.109 481.528L644.725 489.752H643.301L640.789 481.512C640.789 482.845 640.72 484.387 640.581 486.136L640.213 491H638.773L639.685 479.976H641.733L644.053 487.992L646.261 479.976H648.325L649.237 491ZM657.434 489.032C657.434 489.373 657.493 489.629 657.61 489.8C657.728 489.96 657.904 490.083 658.138 490.168L657.802 491.192C657.365 491.139 657.013 491.016 656.746 490.824C656.48 490.632 656.282 490.333 656.154 489.928C655.589 490.771 654.752 491.192 653.642 491.192C652.81 491.192 652.154 490.957 651.674 490.488C651.194 490.019 650.954 489.405 650.954 488.648C650.954 487.752 651.274 487.064 651.914 486.584C652.565 486.104 653.482 485.864 654.666 485.864H655.962V485.24C655.962 484.643 655.818 484.216 655.53 483.96C655.242 483.704 654.8 483.576 654.202 483.576C653.584 483.576 652.826 483.725 651.93 484.024L651.562 482.952C652.608 482.568 653.578 482.376 654.474 482.376C655.466 482.376 656.208 482.621 656.698 483.112C657.189 483.592 657.434 484.28 657.434 485.176V489.032ZM653.978 490.088C654.821 490.088 655.482 489.651 655.962 488.776V486.84H654.858C653.301 486.84 652.522 487.416 652.522 488.568C652.522 489.069 652.645 489.448 652.89 489.704C653.136 489.96 653.498 490.088 653.978 490.088ZM661.981 491.192C661.437 491.192 661.005 491.032 660.685 490.712C660.376 490.381 660.221 489.923 660.221 489.336V479.176L661.693 479V489.304C661.693 489.539 661.731 489.709 661.805 489.816C661.891 489.923 662.029 489.976 662.221 489.976C662.424 489.976 662.605 489.944 662.765 489.88L663.149 490.904C662.797 491.096 662.408 491.192 661.981 491.192ZM666.461 482.568V491H664.989V482.568H666.461ZM665.709 478.52C666.018 478.52 666.269 478.616 666.461 478.808C666.653 479 666.749 479.24 666.749 479.528C666.749 479.816 666.653 480.056 666.461 480.248C666.269 480.429 666.018 480.52 665.709 480.52C665.41 480.52 665.165 480.429 664.973 480.248C664.781 480.056 664.685 479.816 664.685 479.528C664.685 479.24 664.781 479 664.973 478.808C665.165 478.616 665.41 478.52 665.709 478.52ZM673.36 482.376C674.32 482.376 675.083 482.765 675.648 483.544C676.214 484.312 676.496 485.389 676.496 486.776C676.496 487.651 676.363 488.424 676.096 489.096C675.83 489.757 675.446 490.275 674.944 490.648C674.443 491.011 673.856 491.192 673.184 491.192C672.299 491.192 671.552 490.819 670.944 490.072L670.8 491H669.504V479.176L670.976 479V483.624C671.584 482.792 672.379 482.376 673.36 482.376ZM672.832 490.024C673.483 490.024 673.99 489.763 674.352 489.24C674.726 488.707 674.912 487.885 674.912 486.776C674.912 485.635 674.742 484.813 674.4 484.312C674.059 483.8 673.574 483.544 672.944 483.544C672.198 483.544 671.542 483.981 670.976 484.856V488.888C671.2 489.24 671.472 489.517 671.792 489.72C672.123 489.923 672.47 490.024 672.832 490.024ZM685.276 491H684.012L683.9 489.688C683.58 490.211 683.212 490.595 682.796 490.84C682.38 491.075 681.874 491.192 681.276 491.192C680.54 491.192 679.964 490.968 679.548 490.52C679.132 490.072 678.924 489.437 678.924 488.616V482.568H680.396V488.456C680.396 489.032 680.498 489.443 680.7 489.688C680.903 489.923 681.234 490.04 681.692 490.04C682.514 490.04 683.218 489.555 683.804 488.584V482.568H685.276V491ZM688.701 488.968C689.021 488.968 689.288 489.075 689.501 489.288C689.714 489.501 689.821 489.763 689.821 490.072C689.821 490.403 689.725 490.781 689.533 491.208L688.461 493.656H687.405L688.045 491C687.906 490.893 687.794 490.76 687.709 490.6C687.634 490.44 687.597 490.264 687.597 490.072C687.597 489.763 687.704 489.501 687.917 489.288C688.13 489.075 688.392 488.968 688.701 488.968ZM700.331 479.784C700.992 479.784 701.547 479.869 701.995 480.04C702.454 480.211 702.918 480.488 703.387 480.872L702.555 481.848C701.883 481.304 701.174 481.032 700.427 481.032C699.51 481.032 698.768 481.384 698.203 482.088C697.648 482.792 697.371 483.923 697.371 485.48C697.371 486.995 697.648 488.115 698.203 488.84C698.758 489.555 699.494 489.912 700.411 489.912C700.88 489.912 701.291 489.832 701.643 489.672C701.995 489.512 702.368 489.288 702.763 489L703.515 489.96C703.174 490.312 702.736 490.605 702.203 490.84C701.67 491.075 701.056 491.192 700.363 491.192C699.467 491.192 698.667 490.973 697.963 490.536C697.27 490.088 696.726 489.437 696.331 488.584C695.947 487.72 695.755 486.685 695.755 485.48C695.755 484.275 695.958 483.245 696.363 482.392C696.768 481.528 697.318 480.877 698.011 480.44C698.704 480.003 699.478 479.784 700.331 479.784ZM711.3 491L710.468 488.232H706.292L705.46 491H703.924L707.46 479.976H709.38L712.9 491H711.3ZM706.66 487H710.1L708.388 481.24L706.66 487Z" fill="white"/>
<path d="M182.41 213.976L180.17 225H178.218L176.186 215.768L174.138 225H172.234L169.994 213.976H171.482L173.258 223.672L175.386 213.976H177.002L179.178 223.672L181.018 213.976H182.41ZM190.544 220.536C190.544 220.781 190.534 221.032 190.512 221.288H185.136C185.2 222.216 185.435 222.899 185.84 223.336C186.246 223.773 186.768 223.992 187.408 223.992C187.814 223.992 188.187 223.933 188.528 223.816C188.87 223.699 189.227 223.512 189.6 223.256L190.24 224.136C189.344 224.84 188.363 225.192 187.296 225.192C186.123 225.192 185.206 224.808 184.544 224.04C183.894 223.272 183.568 222.216 183.568 220.872C183.568 219.997 183.707 219.224 183.984 218.552C184.272 217.869 184.678 217.336 185.2 216.952C185.734 216.568 186.358 216.376 187.072 216.376C188.192 216.376 189.051 216.744 189.648 217.48C190.246 218.216 190.544 219.235 190.544 220.536ZM189.088 220.104C189.088 219.272 188.923 218.637 188.592 218.2C188.262 217.763 187.766 217.544 187.104 217.544C185.899 217.544 185.243 218.429 185.136 220.2H189.088V220.104ZM195.183 216.376C195.759 216.376 196.276 216.456 196.735 216.616C197.194 216.776 197.631 217.016 198.047 217.336L197.423 218.264C197.039 218.019 196.671 217.837 196.319 217.72C195.978 217.603 195.615 217.544 195.231 217.544C194.751 217.544 194.372 217.645 194.095 217.848C193.818 218.04 193.679 218.307 193.679 218.648C193.679 218.989 193.807 219.256 194.063 219.448C194.33 219.64 194.804 219.827 195.487 220.008C196.426 220.243 197.124 220.563 197.583 220.968C198.052 221.373 198.287 221.928 198.287 222.632C198.287 223.464 197.962 224.099 197.311 224.536C196.671 224.973 195.887 225.192 194.959 225.192C193.679 225.192 192.618 224.824 191.775 224.088L192.559 223.192C193.274 223.736 194.063 224.008 194.927 224.008C195.482 224.008 195.919 223.896 196.239 223.672C196.57 223.437 196.735 223.123 196.735 222.728C196.735 222.44 196.676 222.211 196.559 222.04C196.442 221.859 196.239 221.704 195.951 221.576C195.663 221.437 195.242 221.293 194.687 221.144C193.791 220.909 193.14 220.595 192.735 220.2C192.34 219.805 192.143 219.304 192.143 218.696C192.143 218.259 192.271 217.864 192.527 217.512C192.794 217.149 193.156 216.872 193.615 216.68C194.084 216.477 194.607 216.376 195.183 216.376ZM204.62 224.616C204.065 225 203.436 225.192 202.732 225.192C202.017 225.192 201.457 224.989 201.052 224.584C200.657 224.168 200.46 223.571 200.46 222.792V217.704H198.988V216.568H200.46V214.664L201.932 214.488V216.568H203.932L203.772 217.704H201.932V222.728C201.932 223.165 202.006 223.485 202.156 223.688C202.316 223.88 202.577 223.976 202.94 223.976C203.27 223.976 203.644 223.864 204.06 223.64L204.62 224.616ZM213.179 213.784C213.915 213.784 214.545 213.891 215.067 214.104C215.59 214.307 216.097 214.627 216.587 215.064L215.755 215.992C215.339 215.661 214.929 215.421 214.523 215.272C214.129 215.112 213.702 215.032 213.243 215.032C212.667 215.032 212.193 215.165 211.819 215.432C211.446 215.699 211.259 216.088 211.259 216.6C211.259 216.92 211.323 217.192 211.451 217.416C211.579 217.629 211.814 217.827 212.155 218.008C212.507 218.189 213.014 218.381 213.675 218.584C214.369 218.797 214.945 219.027 215.403 219.272C215.862 219.517 216.23 219.859 216.507 220.296C216.795 220.723 216.939 221.267 216.939 221.928C216.939 222.568 216.779 223.133 216.459 223.624C216.15 224.115 215.697 224.499 215.099 224.776C214.513 225.053 213.814 225.192 213.003 225.192C211.478 225.192 210.23 224.717 209.259 223.768L210.091 222.84C210.539 223.203 210.993 223.48 211.451 223.672C211.91 223.853 212.422 223.944 212.987 223.944C213.67 223.944 214.235 223.779 214.683 223.448C215.131 223.107 215.355 222.616 215.355 221.976C215.355 221.613 215.286 221.315 215.147 221.08C215.009 220.835 214.769 220.616 214.427 220.424C214.097 220.232 213.611 220.04 212.971 219.848C211.841 219.507 211.014 219.096 210.491 218.616C209.969 218.136 209.707 217.485 209.707 216.664C209.707 216.109 209.851 215.613 210.139 215.176C210.438 214.739 210.849 214.397 211.371 214.152C211.905 213.907 212.507 213.784 213.179 213.784ZM223.066 216.376C223.834 216.376 224.431 216.605 224.858 217.064C225.295 217.523 225.514 218.152 225.514 218.952V225H224.042V219.16C224.042 218.563 223.925 218.141 223.69 217.896C223.466 217.651 223.135 217.528 222.698 217.528C222.261 217.528 221.871 217.656 221.53 217.912C221.189 218.168 220.869 218.531 220.57 219V225H219.098V213.192L220.57 213.032V217.736C221.231 216.829 222.063 216.376 223.066 216.376ZM231.641 216.376C232.825 216.376 233.742 216.771 234.393 217.56C235.054 218.349 235.385 219.421 235.385 220.776C235.385 221.651 235.236 222.424 234.937 223.096C234.638 223.757 234.206 224.275 233.641 224.648C233.076 225.011 232.404 225.192 231.625 225.192C230.441 225.192 229.518 224.797 228.857 224.008C228.196 223.219 227.865 222.147 227.865 220.792C227.865 219.917 228.014 219.149 228.313 218.488C228.612 217.816 229.044 217.299 229.609 216.936C230.174 216.563 230.852 216.376 231.641 216.376ZM231.641 217.56C230.18 217.56 229.449 218.637 229.449 220.792C229.449 222.936 230.174 224.008 231.625 224.008C233.076 224.008 233.801 222.931 233.801 220.776C233.801 218.632 233.081 217.56 231.641 217.56ZM241.481 216.376C241.78 216.376 242.057 216.408 242.313 216.472L242.041 217.912C241.785 217.848 241.54 217.816 241.305 217.816C240.782 217.816 240.361 218.008 240.041 218.392C239.721 218.776 239.47 219.373 239.289 220.184V225H237.817V216.568H239.081L239.225 218.28C239.449 217.651 239.753 217.176 240.137 216.856C240.521 216.536 240.969 216.376 241.481 216.376ZM249.872 220.536C249.872 220.781 249.862 221.032 249.84 221.288H244.464C244.528 222.216 244.763 222.899 245.168 223.336C245.574 223.773 246.096 223.992 246.736 223.992C247.142 223.992 247.515 223.933 247.856 223.816C248.198 223.699 248.555 223.512 248.928 223.256L249.568 224.136C248.672 224.84 247.691 225.192 246.624 225.192C245.451 225.192 244.534 224.808 243.872 224.04C243.222 223.272 242.896 222.216 242.896 220.872C242.896 219.997 243.035 219.224 243.312 218.552C243.6 217.869 244.006 217.336 244.528 216.952C245.062 216.568 245.686 216.376 246.4 216.376C247.52 216.376 248.379 216.744 248.976 217.48C249.574 218.216 249.872 219.235 249.872 220.536ZM248.416 220.104C248.416 219.272 248.251 218.637 247.92 218.2C247.59 217.763 247.094 217.544 246.432 217.544C245.227 217.544 244.571 218.429 244.464 220.2H248.416V220.104ZM258.41 212.184V226.568H258.058V212.184H258.41ZM277.237 225H275.765L275.381 220.024C275.221 218.072 275.131 216.573 275.109 215.528L272.725 223.752H271.301L268.789 215.512C268.789 216.845 268.72 218.387 268.581 220.136L268.213 225H266.773L267.685 213.976H269.733L272.053 221.992L274.261 213.976H276.325L277.237 225ZM285.434 223.032C285.434 223.373 285.493 223.629 285.61 223.8C285.728 223.96 285.904 224.083 286.138 224.168L285.802 225.192C285.365 225.139 285.013 225.016 284.746 224.824C284.48 224.632 284.282 224.333 284.154 223.928C283.589 224.771 282.752 225.192 281.642 225.192C280.81 225.192 280.154 224.957 279.674 224.488C279.194 224.019 278.954 223.405 278.954 222.648C278.954 221.752 279.274 221.064 279.914 220.584C280.565 220.104 281.482 219.864 282.666 219.864H283.962V219.24C283.962 218.643 283.818 218.216 283.53 217.96C283.242 217.704 282.8 217.576 282.202 217.576C281.584 217.576 280.826 217.725 279.93 218.024L279.562 216.952C280.608 216.568 281.578 216.376 282.474 216.376C283.466 216.376 284.208 216.621 284.698 217.112C285.189 217.592 285.434 218.28 285.434 219.176V223.032ZM281.978 224.088C282.821 224.088 283.482 223.651 283.962 222.776V220.84H282.858C281.301 220.84 280.522 221.416 280.522 222.568C280.522 223.069 280.645 223.448 280.89 223.704C281.136 223.96 281.498 224.088 281.978 224.088ZM289.981 225.192C289.437 225.192 289.005 225.032 288.685 224.712C288.376 224.381 288.221 223.923 288.221 223.336V213.176L289.693 213V223.304C289.693 223.539 289.731 223.709 289.805 223.816C289.891 223.923 290.029 223.976 290.221 223.976C290.424 223.976 290.605 223.944 290.765 223.88L291.149 224.904C290.797 225.096 290.408 225.192 289.981 225.192ZM294.461 216.568V225H292.989V216.568H294.461ZM293.709 212.52C294.018 212.52 294.269 212.616 294.461 212.808C294.653 213 294.749 213.24 294.749 213.528C294.749 213.816 294.653 214.056 294.461 214.248C294.269 214.429 294.018 214.52 293.709 214.52C293.41 214.52 293.165 214.429 292.973 214.248C292.781 214.056 292.685 213.816 292.685 213.528C292.685 213.24 292.781 213 292.973 212.808C293.165 212.616 293.41 212.52 293.709 212.52ZM301.36 216.376C302.32 216.376 303.083 216.765 303.648 217.544C304.214 218.312 304.496 219.389 304.496 220.776C304.496 221.651 304.363 222.424 304.096 223.096C303.83 223.757 303.446 224.275 302.944 224.648C302.443 225.011 301.856 225.192 301.184 225.192C300.299 225.192 299.552 224.819 298.944 224.072L298.8 225H297.504V213.176L298.976 213V217.624C299.584 216.792 300.379 216.376 301.36 216.376ZM300.832 224.024C301.483 224.024 301.99 223.763 302.352 223.24C302.726 222.707 302.912 221.885 302.912 220.776C302.912 219.635 302.742 218.813 302.4 218.312C302.059 217.8 301.574 217.544 300.944 217.544C300.198 217.544 299.542 217.981 298.976 218.856V222.888C299.2 223.24 299.472 223.517 299.792 223.72C300.123 223.923 300.47 224.024 300.832 224.024ZM313.276 225H312.012L311.9 223.688C311.58 224.211 311.212 224.595 310.796 224.84C310.38 225.075 309.874 225.192 309.276 225.192C308.54 225.192 307.964 224.968 307.548 224.52C307.132 224.072 306.924 223.437 306.924 222.616V216.568H308.396V222.456C308.396 223.032 308.498 223.443 308.7 223.688C308.903 223.923 309.234 224.04 309.692 224.04C310.514 224.04 311.218 223.555 311.804 222.584V216.568H313.276V225ZM316.701 222.968C317.021 222.968 317.288 223.075 317.501 223.288C317.714 223.501 317.821 223.763 317.821 224.072C317.821 224.403 317.725 224.781 317.533 225.208L316.461 227.656H315.405L316.045 225C315.906 224.893 315.794 224.76 315.709 224.6C315.634 224.44 315.597 224.264 315.597 224.072C315.597 223.763 315.704 223.501 315.917 223.288C316.13 223.075 316.392 222.968 316.701 222.968ZM328.331 213.784C328.992 213.784 329.547 213.869 329.995 214.04C330.454 214.211 330.918 214.488 331.387 214.872L330.555 215.848C329.883 215.304 329.174 215.032 328.427 215.032C327.51 215.032 326.768 215.384 326.203 216.088C325.648 216.792 325.371 217.923 325.371 219.48C325.371 220.995 325.648 222.115 326.203 222.84C326.758 223.555 327.494 223.912 328.411 223.912C328.88 223.912 329.291 223.832 329.643 223.672C329.995 223.512 330.368 223.288 330.763 223L331.515 223.96C331.174 224.312 330.736 224.605 330.203 224.84C329.67 225.075 329.056 225.192 328.363 225.192C327.467 225.192 326.667 224.973 325.963 224.536C325.27 224.088 324.726 223.437 324.331 222.584C323.947 221.72 323.755 220.685 323.755 219.48C323.755 218.275 323.958 217.245 324.363 216.392C324.768 215.528 325.318 214.877 326.011 214.44C326.704 214.003 327.478 213.784 328.331 213.784ZM339.3 225L338.468 222.232H334.292L333.46 225H331.924L335.46 213.976H337.38L340.9 225H339.3ZM334.66 221H338.1L336.388 215.24L334.66 221Z" fill="white"/>
<path d="M502.021 390.976L501.845 392.192H497.573V395.792H501.285V397.008H497.573V400.784H502.149V402H496.053V390.976H502.021ZM510.028 400.032C510.028 400.373 510.087 400.629 510.204 400.8C510.321 400.96 510.497 401.083 510.732 401.168L510.396 402.192C509.959 402.139 509.607 402.016 509.34 401.824C509.073 401.632 508.876 401.333 508.748 400.928C508.183 401.771 507.345 402.192 506.236 402.192C505.404 402.192 504.748 401.957 504.268 401.488C503.788 401.019 503.548 400.405 503.548 399.648C503.548 398.752 503.868 398.064 504.508 397.584C505.159 397.104 506.076 396.864 507.26 396.864H508.556V396.24C508.556 395.643 508.412 395.216 508.124 394.96C507.836 394.704 507.393 394.576 506.796 394.576C506.177 394.576 505.42 394.725 504.524 395.024L504.156 393.952C505.201 393.568 506.172 393.376 507.068 393.376C508.06 393.376 508.801 393.621 509.292 394.112C509.783 394.592 510.028 395.28 510.028 396.176V400.032ZM506.572 401.088C507.415 401.088 508.076 400.651 508.556 399.776V397.84H507.452C505.895 397.84 505.116 398.416 505.116 399.568C505.116 400.069 505.239 400.448 505.484 400.704C505.729 400.96 506.092 401.088 506.572 401.088ZM515.183 393.376C515.759 393.376 516.276 393.456 516.735 393.616C517.194 393.776 517.631 394.016 518.047 394.336L517.423 395.264C517.039 395.019 516.671 394.837 516.319 394.72C515.978 394.603 515.615 394.544 515.231 394.544C514.751 394.544 514.372 394.645 514.095 394.848C513.818 395.04 513.679 395.307 513.679 395.648C513.679 395.989 513.807 396.256 514.063 396.448C514.33 396.64 514.804 396.827 515.487 397.008C516.426 397.243 517.124 397.563 517.583 397.968C518.052 398.373 518.287 398.928 518.287 399.632C518.287 400.464 517.962 401.099 517.311 401.536C516.671 401.973 515.887 402.192 514.959 402.192C513.679 402.192 512.618 401.824 511.775 401.088L512.559 400.192C513.274 400.736 514.063 401.008 514.927 401.008C515.482 401.008 515.919 400.896 516.239 400.672C516.57 400.437 516.735 400.123 516.735 399.728C516.735 399.44 516.676 399.211 516.559 399.04C516.442 398.859 516.239 398.704 515.951 398.576C515.663 398.437 515.242 398.293 514.687 398.144C513.791 397.909 513.14 397.595 512.735 397.2C512.34 396.805 512.143 396.304 512.143 395.696C512.143 395.259 512.271 394.864 512.527 394.512C512.794 394.149 513.156 393.872 513.615 393.68C514.084 393.477 514.607 393.376 515.183 393.376ZM524.62 401.616C524.065 402 523.436 402.192 522.732 402.192C522.017 402.192 521.457 401.989 521.052 401.584C520.657 401.168 520.46 400.571 520.46 399.792V394.704H518.988V393.568H520.46V391.664L521.932 391.488V393.568H523.932L523.772 394.704H521.932V399.728C521.932 400.165 522.006 400.485 522.156 400.688C522.316 400.88 522.577 400.976 522.94 400.976C523.27 400.976 523.644 400.864 524.06 400.64L524.62 401.616ZM533.179 390.784C533.915 390.784 534.545 390.891 535.067 391.104C535.59 391.307 536.097 391.627 536.587 392.064L535.755 392.992C535.339 392.661 534.929 392.421 534.523 392.272C534.129 392.112 533.702 392.032 533.243 392.032C532.667 392.032 532.193 392.165 531.819 392.432C531.446 392.699 531.259 393.088 531.259 393.6C531.259 393.92 531.323 394.192 531.451 394.416C531.579 394.629 531.814 394.827 532.155 395.008C532.507 395.189 533.014 395.381 533.675 395.584C534.369 395.797 534.945 396.027 535.403 396.272C535.862 396.517 536.23 396.859 536.507 397.296C536.795 397.723 536.939 398.267 536.939 398.928C536.939 399.568 536.779 400.133 536.459 400.624C536.15 401.115 535.697 401.499 535.099 401.776C534.513 402.053 533.814 402.192 533.003 402.192C531.478 402.192 530.23 401.717 529.259 400.768L530.091 399.84C530.539 400.203 530.993 400.48 531.451 400.672C531.91 400.853 532.422 400.944 532.987 400.944C533.67 400.944 534.235 400.779 534.683 400.448C535.131 400.107 535.355 399.616 535.355 398.976C535.355 398.613 535.286 398.315 535.147 398.08C535.009 397.835 534.769 397.616 534.427 397.424C534.097 397.232 533.611 397.04 532.971 396.848C531.841 396.507 531.014 396.096 530.491 395.616C529.969 395.136 529.707 394.485 529.707 393.664C529.707 393.109 529.851 392.613 530.139 392.176C530.438 391.739 530.849 391.397 531.371 391.152C531.905 390.907 532.507 390.784 533.179 390.784ZM543.066 393.376C543.834 393.376 544.431 393.605 544.858 394.064C545.295 394.523 545.514 395.152 545.514 395.952V402H544.042V396.16C544.042 395.563 543.925 395.141 543.69 394.896C543.466 394.651 543.135 394.528 542.698 394.528C542.261 394.528 541.871 394.656 541.53 394.912C541.189 395.168 540.869 395.531 540.57 396V402H539.098V390.192L540.57 390.032V394.736C541.231 393.829 542.063 393.376 543.066 393.376ZM551.641 393.376C552.825 393.376 553.742 393.771 554.393 394.56C555.054 395.349 555.385 396.421 555.385 397.776C555.385 398.651 555.236 399.424 554.937 400.096C554.638 400.757 554.206 401.275 553.641 401.648C553.076 402.011 552.404 402.192 551.625 402.192C550.441 402.192 549.518 401.797 548.857 401.008C548.196 400.219 547.865 399.147 547.865 397.792C547.865 396.917 548.014 396.149 548.313 395.488C548.612 394.816 549.044 394.299 549.609 393.936C550.174 393.563 550.852 393.376 551.641 393.376ZM551.641 394.56C550.18 394.56 549.449 395.637 549.449 397.792C549.449 399.936 550.174 401.008 551.625 401.008C553.076 401.008 553.801 399.931 553.801 397.776C553.801 395.632 553.081 394.56 551.641 394.56ZM561.481 393.376C561.78 393.376 562.057 393.408 562.313 393.472L562.041 394.912C561.785 394.848 561.54 394.816 561.305 394.816C560.782 394.816 560.361 395.008 560.041 395.392C559.721 395.776 559.47 396.373 559.289 397.184V402H557.817V393.568H559.081L559.225 395.28C559.449 394.651 559.753 394.176 560.137 393.856C560.521 393.536 560.969 393.376 561.481 393.376ZM569.872 397.536C569.872 397.781 569.862 398.032 569.84 398.288H564.464C564.528 399.216 564.763 399.899 565.168 400.336C565.574 400.773 566.096 400.992 566.736 400.992C567.142 400.992 567.515 400.933 567.856 400.816C568.198 400.699 568.555 400.512 568.928 400.256L569.568 401.136C568.672 401.84 567.691 402.192 566.624 402.192C565.451 402.192 564.534 401.808 563.872 401.04C563.222 400.272 562.896 399.216 562.896 397.872C562.896 396.997 563.035 396.224 563.312 395.552C563.6 394.869 564.006 394.336 564.528 393.952C565.062 393.568 565.686 393.376 566.4 393.376C567.52 393.376 568.379 393.744 568.976 394.48C569.574 395.216 569.872 396.235 569.872 397.536ZM568.416 397.104C568.416 396.272 568.251 395.637 567.92 395.2C567.59 394.763 567.094 394.544 566.432 394.544C565.227 394.544 564.571 395.429 564.464 397.2H568.416V397.104ZM578.41 389.184V403.568H578.058V389.184H578.41ZM597.237 402H595.765L595.381 397.024C595.221 395.072 595.131 393.573 595.109 392.528L592.725 400.752H591.301L588.789 392.512C588.789 393.845 588.72 395.387 588.581 397.136L588.213 402H586.773L587.685 390.976H589.733L592.053 398.992L594.261 390.976H596.325L597.237 402ZM605.434 400.032C605.434 400.373 605.493 400.629 605.61 400.8C605.728 400.96 605.904 401.083 606.138 401.168L605.802 402.192C605.365 402.139 605.013 402.016 604.746 401.824C604.48 401.632 604.282 401.333 604.154 400.928C603.589 401.771 602.752 402.192 601.642 402.192C600.81 402.192 600.154 401.957 599.674 401.488C599.194 401.019 598.954 400.405 598.954 399.648C598.954 398.752 599.274 398.064 599.914 397.584C600.565 397.104 601.482 396.864 602.666 396.864H603.962V396.24C603.962 395.643 603.818 395.216 603.53 394.96C603.242 394.704 602.8 394.576 602.202 394.576C601.584 394.576 600.826 394.725 599.93 395.024L599.562 393.952C600.608 393.568 601.578 393.376 602.474 393.376C603.466 393.376 604.208 393.621 604.698 394.112C605.189 394.592 605.434 395.28 605.434 396.176V400.032ZM601.978 401.088C602.821 401.088 603.482 400.651 603.962 399.776V397.84H602.858C601.301 397.84 600.522 398.416 600.522 399.568C600.522 400.069 600.645 400.448 600.89 400.704C601.136 400.96 601.498 401.088 601.978 401.088ZM609.981 402.192C609.437 402.192 609.005 402.032 608.685 401.712C608.376 401.381 608.221 400.923 608.221 400.336V390.176L609.693 390V400.304C609.693 400.539 609.731 400.709 609.805 400.816C609.891 400.923 610.029 400.976 610.221 400.976C610.424 400.976 610.605 400.944 610.765 400.88L611.149 401.904C610.797 402.096 610.408 402.192 609.981 402.192ZM614.461 393.568V402H612.989V393.568H614.461ZM613.709 389.52C614.018 389.52 614.269 389.616 614.461 389.808C614.653 390 614.749 390.24 614.749 390.528C614.749 390.816 614.653 391.056 614.461 391.248C614.269 391.429 614.018 391.52 613.709 391.52C613.41 391.52 613.165 391.429 612.973 391.248C612.781 391.056 612.685 390.816 612.685 390.528C612.685 390.24 612.781 390 612.973 389.808C613.165 389.616 613.41 389.52 613.709 389.52ZM621.36 393.376C622.32 393.376 623.083 393.765 623.648 394.544C624.214 395.312 624.496 396.389 624.496 397.776C624.496 398.651 624.363 399.424 624.096 400.096C623.83 400.757 623.446 401.275 622.944 401.648C622.443 402.011 621.856 402.192 621.184 402.192C620.299 402.192 619.552 401.819 618.944 401.072L618.8 402H617.504V390.176L618.976 390V394.624C619.584 393.792 620.379 393.376 621.36 393.376ZM620.832 401.024C621.483 401.024 621.99 400.763 622.352 400.24C622.726 399.707 622.912 398.885 622.912 397.776C622.912 396.635 622.742 395.813 622.4 395.312C622.059 394.8 621.574 394.544 620.944 394.544C620.198 394.544 619.542 394.981 618.976 395.856V399.888C619.2 400.24 619.472 400.517 619.792 400.72C620.123 400.923 620.47 401.024 620.832 401.024ZM633.276 402H632.012L631.9 400.688C631.58 401.211 631.212 401.595 630.796 401.84C630.38 402.075 629.874 402.192 629.276 402.192C628.54 402.192 627.964 401.968 627.548 401.52C627.132 401.072 626.924 400.437 626.924 399.616V393.568H628.396V399.456C628.396 400.032 628.498 400.443 628.7 400.688C628.903 400.923 629.234 401.04 629.692 401.04C630.514 401.04 631.218 400.555 631.804 399.584V393.568H633.276V402ZM636.701 399.968C637.021 399.968 637.288 400.075 637.501 400.288C637.714 400.501 637.821 400.763 637.821 401.072C637.821 401.403 637.725 401.781 637.533 402.208L636.461 404.656H635.405L636.045 402C635.906 401.893 635.794 401.76 635.709 401.6C635.634 401.44 635.597 401.264 635.597 401.072C635.597 400.763 635.704 400.501 635.917 400.288C636.13 400.075 636.392 399.968 636.701 399.968ZM648.331 390.784C648.992 390.784 649.547 390.869 649.995 391.04C650.454 391.211 650.918 391.488 651.387 391.872L650.555 392.848C649.883 392.304 649.174 392.032 648.427 392.032C647.51 392.032 646.768 392.384 646.203 393.088C645.648 393.792 645.371 394.923 645.371 396.48C645.371 397.995 645.648 399.115 646.203 399.84C646.758 400.555 647.494 400.912 648.411 400.912C648.88 400.912 649.291 400.832 649.643 400.672C649.995 400.512 650.368 400.288 650.763 400L651.515 400.96C651.174 401.312 650.736 401.605 650.203 401.84C649.67 402.075 649.056 402.192 648.363 402.192C647.467 402.192 646.667 401.973 645.963 401.536C645.27 401.088 644.726 400.437 644.331 399.584C643.947 398.72 643.755 397.685 643.755 396.48C643.755 395.275 643.958 394.245 644.363 393.392C644.768 392.528 645.318 391.877 646.011 391.44C646.704 391.003 647.478 390.784 648.331 390.784ZM659.3 402L658.468 399.232H654.292L653.46 402H651.924L655.46 390.976H657.38L660.9 402H659.3ZM654.66 398H658.1L656.388 392.24L654.66 398Z" fill="white"/>
<path d="M597.378 72.784C598.039 72.784 598.594 72.8693 599.042 73.04C599.501 73.2107 599.965 73.488 600.434 73.872L599.602 74.848C598.93 74.304 598.221 74.032 597.474 74.032C596.557 74.032 595.815 74.384 595.25 75.088C594.695 75.792 594.418 76.9227 594.418 78.48C594.418 79.9947 594.695 81.1147 595.25 81.84C595.805 82.5547 596.541 82.912 597.458 82.912C597.927 82.912 598.338 82.832 598.69 82.672C599.042 82.512 599.415 82.288 599.81 82L600.562 82.96C600.221 83.312 599.783 83.6053 599.25 83.84C598.717 84.0747 598.103 84.192 597.41 84.192C596.514 84.192 595.714 83.9733 595.01 83.536C594.317 83.088 593.773 82.4373 593.378 81.584C592.994 80.72 592.802 79.6853 592.802 78.48C592.802 77.2747 593.005 76.2453 593.41 75.392C593.815 74.528 594.365 73.8773 595.058 73.44C595.751 73.0027 596.525 72.784 597.378 72.784ZM608.401 84H607.137L607.025 82.688C606.705 83.2107 606.337 83.5947 605.921 83.84C605.505 84.0747 604.999 84.192 604.401 84.192C603.665 84.192 603.089 83.968 602.673 83.52C602.257 83.072 602.049 82.4373 602.049 81.616V75.568H603.521V81.456C603.521 82.032 603.623 82.4427 603.825 82.688C604.028 82.9227 604.359 83.04 604.817 83.04C605.639 83.04 606.343 82.5547 606.929 81.584V75.568H608.401V84ZM615.106 75.376C615.405 75.376 615.682 75.408 615.938 75.472L615.666 76.912C615.41 76.848 615.165 76.816 614.93 76.816C614.407 76.816 613.986 77.008 613.666 77.392C613.346 77.776 613.095 78.3733 612.914 79.184V84H611.442V75.568H612.706L612.85 77.28C613.074 76.6507 613.378 76.176 613.762 75.856C614.146 75.536 614.594 75.376 615.106 75.376ZM621.278 75.376C621.576 75.376 621.854 75.408 622.11 75.472L621.838 76.912C621.582 76.848 621.336 76.816 621.102 76.816C620.579 76.816 620.158 77.008 619.838 77.392C619.518 77.776 619.267 78.3733 619.086 79.184V84H617.614V75.568H618.878L619.022 77.28C619.246 76.6507 619.55 76.176 619.934 75.856C620.318 75.536 620.766 75.376 621.278 75.376ZM629.669 79.536C629.669 79.7813 629.659 80.032 629.637 80.288H624.261C624.325 81.216 624.56 81.8987 624.965 82.336C625.371 82.7733 625.893 82.992 626.533 82.992C626.939 82.992 627.312 82.9333 627.653 82.816C627.995 82.6987 628.352 82.512 628.725 82.256L629.365 83.136C628.469 83.84 627.488 84.192 626.421 84.192C625.248 84.192 624.331 83.808 623.669 83.04C623.019 82.272 622.693 81.216 622.693 79.872C622.693 78.9973 622.832 78.224 623.109 77.552C623.397 76.8693 623.803 76.336 624.325 75.952C624.859 75.568 625.483 75.376 626.197 75.376C627.317 75.376 628.176 75.744 628.773 76.48C629.371 77.216 629.669 78.2347 629.669 79.536ZM628.213 79.104C628.213 78.272 628.048 77.6373 627.717 77.2C627.387 76.7627 626.891 76.544 626.229 76.544C625.024 76.544 624.368 77.4293 624.261 79.2H628.213V79.104ZM635.988 75.376C636.756 75.376 637.353 75.6053 637.78 76.064C638.217 76.5227 638.436 77.152 638.436 77.952V84H636.964V78.16C636.964 77.5627 636.852 77.1413 636.628 76.896C636.404 76.6507 636.073 76.528 635.636 76.528C635.188 76.528 634.793 76.656 634.452 76.912C634.111 77.168 633.791 77.536 633.492 78.016V84H632.02V75.568H633.284L633.412 76.816C633.711 76.368 634.079 76.016 634.516 75.76C634.964 75.504 635.455 75.376 635.988 75.376ZM645.651 83.616C645.096 84 644.467 84.192 643.763 84.192C643.048 84.192 642.488 83.9893 642.083 83.584C641.688 83.168 641.491 82.5707 641.491 81.792V76.704H640.019V75.568H641.491V73.664L642.963 73.488V75.568H644.963L644.803 76.704H642.963V81.728C642.963 82.1653 643.038 82.4853 643.187 82.688C643.347 82.88 643.608 82.976 643.971 82.976C644.302 82.976 644.675 82.864 645.091 82.64L645.651 83.616ZM653.011 72.976V82.672H657.539L657.363 84H651.491V72.976H653.011ZM662.141 75.376C663.325 75.376 664.242 75.7707 664.893 76.56C665.554 77.3493 665.885 78.4213 665.885 79.776C665.885 80.6507 665.736 81.424 665.437 82.096C665.138 82.7573 664.706 83.2747 664.141 83.648C663.576 84.0107 662.904 84.192 662.125 84.192C660.941 84.192 660.018 83.7973 659.357 83.008C658.696 82.2187 658.365 81.1467 658.365 79.792C658.365 78.9173 658.514 78.1493 658.813 77.488C659.112 76.816 659.544 76.2987 660.109 75.936C660.674 75.5627 661.352 75.376 662.141 75.376ZM662.141 76.56C660.68 76.56 659.949 77.6373 659.949 79.792C659.949 81.936 660.674 83.008 662.125 83.008C663.576 83.008 664.301 81.9307 664.301 79.776C664.301 77.632 663.581 76.56 662.141 76.56ZM671.389 75.376C671.89 75.376 672.349 75.4507 672.765 75.6C673.181 75.7387 673.581 75.968 673.965 76.288L673.261 77.216C672.962 77.0027 672.669 76.848 672.381 76.752C672.104 76.6453 671.794 76.592 671.453 76.592C670.77 76.592 670.237 76.864 669.853 77.408C669.48 77.952 669.293 78.7573 669.293 79.824C669.293 80.8907 669.48 81.68 669.853 82.192C670.226 82.6933 670.76 82.944 671.453 82.944C671.784 82.944 672.088 82.896 672.365 82.8C672.642 82.6933 672.952 82.528 673.293 82.304L673.965 83.264C673.197 83.8827 672.338 84.192 671.389 84.192C670.248 84.192 669.346 83.808 668.685 83.04C668.034 82.272 667.709 81.2107 667.709 79.856C667.709 78.96 667.858 78.176 668.157 77.504C668.456 76.832 668.877 76.3093 669.421 75.936C669.976 75.5627 670.632 75.376 671.389 75.376ZM681.481 82.032C681.481 82.3733 681.54 82.6293 681.657 82.8C681.775 82.96 681.951 83.0827 682.185 83.168L681.849 84.192C681.412 84.1387 681.06 84.016 680.793 83.824C680.527 83.632 680.329 83.3333 680.201 82.928C679.636 83.7707 678.799 84.192 677.689 84.192C676.857 84.192 676.201 83.9573 675.721 83.488C675.241 83.0187 675.001 82.4053 675.001 81.648C675.001 80.752 675.321 80.064 675.961 79.584C676.612 79.104 677.529 78.864 678.713 78.864H680.009V78.24C680.009 77.6427 679.865 77.216 679.577 76.96C679.289 76.704 678.847 76.576 678.249 76.576C677.631 76.576 676.873 76.7253 675.977 77.024L675.609 75.952C676.655 75.568 677.625 75.376 678.521 75.376C679.513 75.376 680.255 75.6213 680.745 76.112C681.236 76.592 681.481 77.28 681.481 78.176V82.032ZM678.025 83.088C678.868 83.088 679.529 82.6507 680.009 81.776V79.84H678.905C677.348 79.84 676.569 80.416 676.569 81.568C676.569 82.0693 676.692 82.448 676.937 82.704C677.183 82.96 677.545 83.088 678.025 83.088ZM688.76 83.616C688.206 84 687.576 84.192 686.872 84.192C686.158 84.192 685.598 83.9893 685.192 83.584C684.798 83.168 684.6 82.5707 684.6 81.792V76.704H683.128V75.568H684.6V73.664L686.072 73.488V75.568H688.072L687.912 76.704H686.072V81.728C686.072 82.1653 686.147 82.4853 686.296 82.688C686.456 82.88 686.718 82.976 687.08 82.976C687.411 82.976 687.784 82.864 688.2 82.64L688.76 83.616ZM691.758 75.568V84H690.286V75.568H691.758ZM691.006 71.52C691.315 71.52 691.566 71.616 691.758 71.808C691.95 72 692.046 72.24 692.046 72.528C692.046 72.816 691.95 73.056 691.758 73.248C691.566 73.4293 691.315 73.52 691.006 73.52C690.707 73.52 690.462 73.4293 690.27 73.248C690.078 73.056 689.982 72.816 689.982 72.528C689.982 72.24 690.078 72 690.27 71.808C690.462 71.616 690.707 71.52 691.006 71.52ZM697.969 75.376C699.153 75.376 700.071 75.7707 700.721 76.56C701.383 77.3493 701.713 78.4213 701.713 79.776C701.713 80.6507 701.564 81.424 701.265 82.096C700.967 82.7573 700.535 83.2747 699.969 83.648C699.404 84.0107 698.732 84.192 697.953 84.192C696.769 84.192 695.847 83.7973 695.185 83.008C694.524 82.2187 694.193 81.1467 694.193 79.792C694.193 78.9173 694.343 78.1493 694.641 77.488C694.94 76.816 695.372 76.2987 695.937 75.936C696.503 75.5627 697.18 75.376 697.969 75.376ZM697.969 76.56C696.508 76.56 695.777 77.6373 695.777 79.792C695.777 81.936 696.503 83.008 697.953 83.008C699.404 83.008 700.129 81.9307 700.129 79.776C700.129 77.632 699.409 76.56 697.969 76.56ZM708.113 75.376C708.881 75.376 709.478 75.6053 709.905 76.064C710.342 76.5227 710.561 77.152 710.561 77.952V84H709.089V78.16C709.089 77.5627 708.977 77.1413 708.753 76.896C708.529 76.6507 708.198 76.528 707.761 76.528C707.313 76.528 706.918 76.656 706.577 76.912C706.236 77.168 705.916 77.536 705.617 78.016V84H704.145V75.568H705.409L705.537 76.816C705.836 76.368 706.204 76.016 706.641 75.76C707.089 75.504 707.58 75.376 708.113 75.376Z" fill="white"/>
<path fill-rule="evenodd" clip-rule="evenodd" d="M730.003 68C731.591 68.0029 733.132 68.5166 734.347 69.4466C735.933 70.6607 736.864 72.3846 736.973 74.2996C737.078 76.1903 736.333 78.0386 734.93 79.3702L729.988 86C729.808 86.1695 730.168 86.1701 729.988 86L725.039 79.3554C723.638 78.0157 722.898 76.1633 723.011 74.2744C723.126 72.3599 724.065 70.6394 725.654 69.4309C726.87 68.5053 728.415 67.9971 730.003 68ZM726.872 74.65C726.869 76.2889 728.265 77.624 729.985 77.6271C731.706 77.6302 733.109 76.3002 733.11 74.6613C733.113 73.0225 731.717 71.6873 729.996 71.6842C728.276 71.6811 726.875 73.0111 726.872 74.65Z" fill="#4AF6CD"/>
<path d="M729.993 73.2074C729.155 73.2058 728.472 73.8535 728.471 74.6525C728.469 75.4514 729.149 76.1015 729.988 76.1031C730.827 76.1046 731.509 75.4569 731.511 74.658C731.512 73.859 730.832 73.2089 729.993 73.2074Z" fill="#4AF6CD"/>
</svg>
